<mxfile host="app.diagrams.net" modified="2023-09-19T03:21:19.627Z" agent="5.0 (Windows NT 6.3; Win64; x64) AppleWebKit/537.36 (KHTML, like Gecko) Chrome/109.0.0.0 Safari/537.36" etag="tbopvO2zQFnjlk02jOfc" version="20.3.7" type="github">
  <diagram id="R2lEEEUBdFMjLlhIrx00" name="Page-1">
    <mxGraphModel dx="1727" dy="995" grid="1" gridSize="10" guides="1" tooltips="1" connect="1" arrows="1" fold="1" page="1" pageScale="1" pageWidth="850" pageHeight="1100" math="0" shadow="0" extFonts="Permanent Marker^https://fonts.googleapis.com/css?family=Permanent+Marker">
      <root>
        <mxCell id="0" />
        <mxCell id="1" parent="0" />
        <mxCell id="Wuv9j8n0uz5xH8MKSZqj-2" value="&lt;font style=&quot;font-size: 20px;&quot;&gt;&lt;b&gt;ROBOCON&lt;/b&gt;&lt;/font&gt;" style="rounded=1;whiteSpace=wrap;html=1;sketch=1;" parent="1" vertex="1">
          <mxGeometry x="240" y="40" width="400" height="120" as="geometry" />
        </mxCell>
        <mxCell id="Wuv9j8n0uz5xH8MKSZqj-11" style="rounded=1;orthogonalLoop=1;jettySize=auto;html=1;entryX=0.5;entryY=1;entryDx=0;entryDy=0;sketch=1;" parent="1" source="Wuv9j8n0uz5xH8MKSZqj-3" target="Wuv9j8n0uz5xH8MKSZqj-8" edge="1">
          <mxGeometry relative="1" as="geometry" />
        </mxCell>
        <mxCell id="Wuv9j8n0uz5xH8MKSZqj-12" style="rounded=1;orthogonalLoop=1;jettySize=auto;html=1;entryX=0.5;entryY=1;entryDx=0;entryDy=0;sketch=1;" parent="1" source="Wuv9j8n0uz5xH8MKSZqj-3" target="Wuv9j8n0uz5xH8MKSZqj-9" edge="1">
          <mxGeometry relative="1" as="geometry" />
        </mxCell>
        <mxCell id="Wuv9j8n0uz5xH8MKSZqj-13" style="rounded=1;orthogonalLoop=1;jettySize=auto;html=1;entryX=0.5;entryY=1;entryDx=0;entryDy=0;sketch=1;" parent="1" source="Wuv9j8n0uz5xH8MKSZqj-3" target="Wuv9j8n0uz5xH8MKSZqj-10" edge="1">
          <mxGeometry relative="1" as="geometry" />
        </mxCell>
        <mxCell id="Wuv9j8n0uz5xH8MKSZqj-3" value="School" style="whiteSpace=wrap;html=1;align=center;sketch=1;rounded=1;" parent="1" vertex="1">
          <mxGeometry x="230" y="330" width="100" height="40" as="geometry" />
        </mxCell>
        <mxCell id="Wuv9j8n0uz5xH8MKSZqj-20" style="rounded=1;orthogonalLoop=1;jettySize=auto;html=1;entryX=0.5;entryY=0;entryDx=0;entryDy=0;sketch=1;" parent="1" target="Wuv9j8n0uz5xH8MKSZqj-15" edge="1">
          <mxGeometry relative="1" as="geometry">
            <mxPoint x="280" y="560" as="sourcePoint" />
          </mxGeometry>
        </mxCell>
        <mxCell id="Wuv9j8n0uz5xH8MKSZqj-21" style="rounded=1;orthogonalLoop=1;jettySize=auto;html=1;entryX=0.5;entryY=0;entryDx=0;entryDy=0;sketch=1;" parent="1" source="Wuv9j8n0uz5xH8MKSZqj-5" target="Wuv9j8n0uz5xH8MKSZqj-16" edge="1">
          <mxGeometry relative="1" as="geometry" />
        </mxCell>
        <mxCell id="Wuv9j8n0uz5xH8MKSZqj-22" style="rounded=1;orthogonalLoop=1;jettySize=auto;html=1;entryX=0.5;entryY=0;entryDx=0;entryDy=0;sketch=1;" parent="1" source="Wuv9j8n0uz5xH8MKSZqj-5" target="Wuv9j8n0uz5xH8MKSZqj-17" edge="1">
          <mxGeometry relative="1" as="geometry" />
        </mxCell>
        <mxCell id="Wuv9j8n0uz5xH8MKSZqj-23" style="rounded=1;orthogonalLoop=1;jettySize=auto;html=1;entryX=0.5;entryY=0;entryDx=0;entryDy=0;sketch=1;" parent="1" source="Wuv9j8n0uz5xH8MKSZqj-5" target="Wuv9j8n0uz5xH8MKSZqj-18" edge="1">
          <mxGeometry relative="1" as="geometry" />
        </mxCell>
        <mxCell id="Wuv9j8n0uz5xH8MKSZqj-5" value="Team Member" style="whiteSpace=wrap;html=1;align=center;sketch=1;rounded=1;" parent="1" vertex="1">
          <mxGeometry x="640" y="520" width="100" height="40" as="geometry" />
        </mxCell>
        <mxCell id="Wuv9j8n0uz5xH8MKSZqj-8" value="&lt;u&gt;School.ID&lt;/u&gt;" style="ellipse;whiteSpace=wrap;html=1;align=center;sketch=1;rounded=1;" parent="1" vertex="1">
          <mxGeometry x="110" y="250" width="100" height="40" as="geometry" />
        </mxCell>
        <mxCell id="Wuv9j8n0uz5xH8MKSZqj-9" value="School.Name" style="ellipse;whiteSpace=wrap;html=1;align=center;sketch=1;rounded=1;" parent="1" vertex="1">
          <mxGeometry x="230" y="250" width="100" height="40" as="geometry" />
        </mxCell>
        <mxCell id="Wuv9j8n0uz5xH8MKSZqj-10" value="Province/City" style="ellipse;whiteSpace=wrap;html=1;align=center;sketch=1;rounded=1;" parent="1" vertex="1">
          <mxGeometry x="350" y="250" width="100" height="40" as="geometry" />
        </mxCell>
        <mxCell id="Wuv9j8n0uz5xH8MKSZqj-15" value="Team Name" style="ellipse;whiteSpace=wrap;html=1;align=center;fontStyle=4;sketch=1;rounded=1;" parent="1" vertex="1">
          <mxGeometry x="230" y="650" width="100" height="40" as="geometry" />
        </mxCell>
        <mxCell id="Wuv9j8n0uz5xH8MKSZqj-16" value="Member.ID" style="ellipse;whiteSpace=wrap;html=1;align=center;fontStyle=4;sketch=1;rounded=1;" parent="1" vertex="1">
          <mxGeometry x="580" y="640" width="100" height="40" as="geometry" />
        </mxCell>
        <mxCell id="Wuv9j8n0uz5xH8MKSZqj-17" value="Name" style="ellipse;whiteSpace=wrap;html=1;align=center;sketch=1;rounded=1;" parent="1" vertex="1">
          <mxGeometry x="660" y="640" width="100" height="40" as="geometry" />
        </mxCell>
        <mxCell id="Wuv9j8n0uz5xH8MKSZqj-18" value="DoB" style="ellipse;whiteSpace=wrap;html=1;align=center;sketch=1;rounded=1;" parent="1" vertex="1">
          <mxGeometry x="750" y="640" width="100" height="40" as="geometry" />
        </mxCell>
        <mxCell id="Wuv9j8n0uz5xH8MKSZqj-26" style="rounded=1;orthogonalLoop=1;jettySize=auto;html=1;entryX=0.5;entryY=1;entryDx=0;entryDy=0;shape=link;sketch=1;" parent="1" target="Wuv9j8n0uz5xH8MKSZqj-3" edge="1">
          <mxGeometry relative="1" as="geometry">
            <mxPoint x="280" y="410" as="sourcePoint" />
          </mxGeometry>
        </mxCell>
        <mxCell id="Wuv9j8n0uz5xH8MKSZqj-27" style="rounded=1;orthogonalLoop=1;jettySize=auto;html=1;entryX=0.5;entryY=0;entryDx=0;entryDy=0;shape=link;sketch=1;" parent="1" edge="1">
          <mxGeometry relative="1" as="geometry">
            <mxPoint x="280" y="470" as="sourcePoint" />
            <mxPoint x="280" y="520" as="targetPoint" />
          </mxGeometry>
        </mxCell>
        <mxCell id="Wuv9j8n0uz5xH8MKSZqj-30" value="1" style="text;html=1;strokeColor=none;fillColor=none;align=center;verticalAlign=middle;whiteSpace=wrap;rounded=1;sketch=1;" parent="1" vertex="1">
          <mxGeometry x="290" y="380" width="60" height="30" as="geometry" />
        </mxCell>
        <mxCell id="Wuv9j8n0uz5xH8MKSZqj-31" value="N" style="text;html=1;strokeColor=none;fillColor=none;align=center;verticalAlign=middle;whiteSpace=wrap;rounded=1;sketch=1;" parent="1" vertex="1">
          <mxGeometry x="290" y="480" width="60" height="30" as="geometry" />
        </mxCell>
        <mxCell id="Wuv9j8n0uz5xH8MKSZqj-33" style="rounded=1;orthogonalLoop=1;jettySize=auto;html=1;entryX=1;entryY=0.5;entryDx=0;entryDy=0;shape=link;exitX=0;exitY=1;exitDx=0;exitDy=0;sketch=1;" parent="1" source="Wuv9j8n0uz5xH8MKSZqj-32" edge="1">
          <mxGeometry relative="1" as="geometry">
            <mxPoint x="330" y="540" as="targetPoint" />
          </mxGeometry>
        </mxCell>
        <mxCell id="Wuv9j8n0uz5xH8MKSZqj-34" style="rounded=1;orthogonalLoop=1;jettySize=auto;html=1;entryX=0;entryY=0.5;entryDx=0;entryDy=0;endArrow=none;endFill=0;shape=link;exitX=0.778;exitY=0.689;exitDx=0;exitDy=0;exitPerimeter=0;sketch=1;" parent="1" source="Wuv9j8n0uz5xH8MKSZqj-32" target="Wuv9j8n0uz5xH8MKSZqj-5" edge="1">
          <mxGeometry relative="1" as="geometry" />
        </mxCell>
        <mxCell id="Wuv9j8n0uz5xH8MKSZqj-32" value="Have" style="shape=rhombus;perimeter=rhombusPerimeter;whiteSpace=wrap;html=1;align=center;sketch=1;rounded=1;" parent="1" vertex="1">
          <mxGeometry x="425" y="465" width="120" height="60" as="geometry" />
        </mxCell>
        <mxCell id="Wuv9j8n0uz5xH8MKSZqj-35" value="1" style="text;html=1;strokeColor=none;fillColor=none;align=center;verticalAlign=middle;whiteSpace=wrap;rounded=1;sketch=1;" parent="1" vertex="1">
          <mxGeometry x="360" y="495" width="60" height="30" as="geometry" />
        </mxCell>
        <mxCell id="Wuv9j8n0uz5xH8MKSZqj-36" value="N" style="text;html=1;strokeColor=none;fillColor=none;align=center;verticalAlign=middle;whiteSpace=wrap;rounded=1;sketch=1;" parent="1" vertex="1">
          <mxGeometry x="560" y="490" width="60" height="30" as="geometry" />
        </mxCell>
        <mxCell id="Wuv9j8n0uz5xH8MKSZqj-40" style="rounded=1;orthogonalLoop=1;jettySize=auto;html=1;endArrow=none;endFill=0;shape=link;entryX=1;entryY=0.5;entryDx=0;entryDy=0;sketch=1;" parent="1" source="Wuv9j8n0uz5xH8MKSZqj-37" target="Wuv9j8n0uz5xH8MKSZqj-52" edge="1">
          <mxGeometry relative="1" as="geometry">
            <mxPoint x="400" y="550" as="targetPoint" />
          </mxGeometry>
        </mxCell>
        <mxCell id="Wuv9j8n0uz5xH8MKSZqj-41" style="rounded=1;orthogonalLoop=1;jettySize=auto;html=1;entryX=0.013;entryY=0.625;entryDx=0;entryDy=0;endArrow=none;endFill=0;entryPerimeter=0;sketch=1;" parent="1" source="Wuv9j8n0uz5xH8MKSZqj-37" target="Wuv9j8n0uz5xH8MKSZqj-5" edge="1">
          <mxGeometry relative="1" as="geometry" />
        </mxCell>
        <mxCell id="Wuv9j8n0uz5xH8MKSZqj-37" value="Lead" style="shape=rhombus;perimeter=rhombusPerimeter;whiteSpace=wrap;html=1;align=center;sketch=1;rounded=1;" parent="1" vertex="1">
          <mxGeometry x="425" y="560" width="120" height="60" as="geometry" />
        </mxCell>
        <mxCell id="Wuv9j8n0uz5xH8MKSZqj-44" value="1" style="text;html=1;strokeColor=none;fillColor=none;align=center;verticalAlign=middle;whiteSpace=wrap;rounded=1;sketch=1;" parent="1" vertex="1">
          <mxGeometry x="680" y="380" width="60" height="30" as="geometry" />
        </mxCell>
        <mxCell id="Wuv9j8n0uz5xH8MKSZqj-45" value="N" style="text;html=1;strokeColor=none;fillColor=none;align=center;verticalAlign=middle;whiteSpace=wrap;rounded=1;sketch=1;" parent="1" vertex="1">
          <mxGeometry x="680" y="480" width="60" height="30" as="geometry" />
        </mxCell>
        <mxCell id="Wuv9j8n0uz5xH8MKSZqj-46" value="&lt;font style=&quot;font-size: 20px;&quot;&gt;&lt;b&gt;ROOM&lt;/b&gt;&lt;/font&gt;" style="rounded=1;whiteSpace=wrap;html=1;sketch=1;" parent="1" vertex="1">
          <mxGeometry x="260" y="800" width="400" height="120" as="geometry" />
        </mxCell>
        <mxCell id="Wuv9j8n0uz5xH8MKSZqj-74" style="rounded=1;orthogonalLoop=1;jettySize=auto;html=1;entryX=0.5;entryY=0;entryDx=0;entryDy=0;sketch=1;" parent="1" source="Wuv9j8n0uz5xH8MKSZqj-51" target="Wuv9j8n0uz5xH8MKSZqj-71" edge="1">
          <mxGeometry relative="1" as="geometry" />
        </mxCell>
        <mxCell id="Wuv9j8n0uz5xH8MKSZqj-75" style="rounded=1;orthogonalLoop=1;jettySize=auto;html=1;entryX=0.5;entryY=0;entryDx=0;entryDy=0;sketch=1;" parent="1" source="Wuv9j8n0uz5xH8MKSZqj-51" target="Wuv9j8n0uz5xH8MKSZqj-72" edge="1">
          <mxGeometry relative="1" as="geometry" />
        </mxCell>
        <mxCell id="Wuv9j8n0uz5xH8MKSZqj-76" style="rounded=1;orthogonalLoop=1;jettySize=auto;html=1;entryX=0.5;entryY=0;entryDx=0;entryDy=0;sketch=1;" parent="1" source="Wuv9j8n0uz5xH8MKSZqj-51" target="Wuv9j8n0uz5xH8MKSZqj-73" edge="1">
          <mxGeometry relative="1" as="geometry" />
        </mxCell>
        <mxCell id="Wuv9j8n0uz5xH8MKSZqj-51" value="Supplies" style="whiteSpace=wrap;html=1;align=center;sketch=1;rounded=1;" parent="1" vertex="1">
          <mxGeometry x="260" y="1610" width="100" height="40" as="geometry" />
        </mxCell>
        <mxCell id="Wuv9j8n0uz5xH8MKSZqj-52" value="Team" style="shape=ext;margin=3;double=1;whiteSpace=wrap;html=1;align=center;sketch=1;rounded=1;" parent="1" vertex="1">
          <mxGeometry x="230" y="520" width="100" height="40" as="geometry" />
        </mxCell>
        <mxCell id="Wuv9j8n0uz5xH8MKSZqj-53" value="1" style="text;html=1;strokeColor=none;fillColor=none;align=center;verticalAlign=middle;whiteSpace=wrap;rounded=1;sketch=1;" parent="1" vertex="1">
          <mxGeometry x="360" y="560" width="60" height="30" as="geometry" />
        </mxCell>
        <mxCell id="Wuv9j8n0uz5xH8MKSZqj-54" value="1" style="text;html=1;strokeColor=none;fillColor=none;align=center;verticalAlign=middle;whiteSpace=wrap;rounded=1;sketch=1;" parent="1" vertex="1">
          <mxGeometry x="570" y="560" width="60" height="30" as="geometry" />
        </mxCell>
        <mxCell id="Wuv9j8n0uz5xH8MKSZqj-55" value="Have" style="shape=rhombus;double=1;perimeter=rhombusPerimeter;whiteSpace=wrap;html=1;align=center;sketch=1;rounded=1;" parent="1" vertex="1">
          <mxGeometry x="220" y="410" width="120" height="60" as="geometry" />
        </mxCell>
        <mxCell id="Wuv9j8n0uz5xH8MKSZqj-60" style="rounded=1;orthogonalLoop=1;jettySize=auto;html=1;entryX=0.5;entryY=1;entryDx=0;entryDy=0;sketch=1;" parent="1" source="Wuv9j8n0uz5xH8MKSZqj-57" target="Wuv9j8n0uz5xH8MKSZqj-62" edge="1">
          <mxGeometry relative="1" as="geometry">
            <mxPoint x="440" y="1260" as="targetPoint" />
          </mxGeometry>
        </mxCell>
        <mxCell id="Wuv9j8n0uz5xH8MKSZqj-80" style="rounded=1;orthogonalLoop=1;jettySize=auto;html=1;entryX=0.5;entryY=1;entryDx=0;entryDy=0;sketch=1;" parent="1" source="Wuv9j8n0uz5xH8MKSZqj-57" target="Wuv9j8n0uz5xH8MKSZqj-79" edge="1">
          <mxGeometry relative="1" as="geometry" />
        </mxCell>
        <mxCell id="Wuv9j8n0uz5xH8MKSZqj-81" style="rounded=1;orthogonalLoop=1;jettySize=auto;html=1;entryX=0.5;entryY=1;entryDx=0;entryDy=0;sketch=1;" parent="1" source="Wuv9j8n0uz5xH8MKSZqj-57" target="Wuv9j8n0uz5xH8MKSZqj-78" edge="1">
          <mxGeometry relative="1" as="geometry" />
        </mxCell>
        <mxCell id="Wuv9j8n0uz5xH8MKSZqj-84" style="rounded=1;orthogonalLoop=1;jettySize=auto;html=1;shape=link;sketch=1;" parent="1" source="Wuv9j8n0uz5xH8MKSZqj-57" target="Wuv9j8n0uz5xH8MKSZqj-83" edge="1">
          <mxGeometry relative="1" as="geometry" />
        </mxCell>
        <mxCell id="Wuv9j8n0uz5xH8MKSZqj-57" value="Building" style="whiteSpace=wrap;html=1;align=center;sketch=1;rounded=1;" parent="1" vertex="1">
          <mxGeometry x="260" y="1180" width="100" height="40" as="geometry" />
        </mxCell>
        <mxCell id="Wuv9j8n0uz5xH8MKSZqj-67" style="rounded=1;orthogonalLoop=1;jettySize=auto;html=1;entryX=0;entryY=0.5;entryDx=0;entryDy=0;sketch=1;" parent="1" source="Wuv9j8n0uz5xH8MKSZqj-59" target="Wuv9j8n0uz5xH8MKSZqj-88" edge="1">
          <mxGeometry relative="1" as="geometry">
            <mxPoint x="530" y="1330" as="targetPoint" />
          </mxGeometry>
        </mxCell>
        <mxCell id="Wuv9j8n0uz5xH8MKSZqj-68" style="rounded=1;orthogonalLoop=1;jettySize=auto;html=1;entryX=0;entryY=0.5;entryDx=0;entryDy=0;sketch=1;" parent="1" source="Wuv9j8n0uz5xH8MKSZqj-59" target="Wuv9j8n0uz5xH8MKSZqj-64" edge="1">
          <mxGeometry relative="1" as="geometry" />
        </mxCell>
        <mxCell id="Wuv9j8n0uz5xH8MKSZqj-69" style="rounded=1;orthogonalLoop=1;jettySize=auto;html=1;entryX=0;entryY=0.5;entryDx=0;entryDy=0;sketch=1;" parent="1" source="Wuv9j8n0uz5xH8MKSZqj-59" target="Wuv9j8n0uz5xH8MKSZqj-65" edge="1">
          <mxGeometry relative="1" as="geometry" />
        </mxCell>
        <mxCell id="Wuv9j8n0uz5xH8MKSZqj-70" style="rounded=1;orthogonalLoop=1;jettySize=auto;html=1;entryX=0;entryY=0.5;entryDx=0;entryDy=0;sketch=1;" parent="1" source="Wuv9j8n0uz5xH8MKSZqj-59" target="Wuv9j8n0uz5xH8MKSZqj-66" edge="1">
          <mxGeometry relative="1" as="geometry" />
        </mxCell>
        <mxCell id="Wuv9j8n0uz5xH8MKSZqj-85" style="rounded=1;orthogonalLoop=1;jettySize=auto;html=1;entryX=0.5;entryY=1;entryDx=0;entryDy=0;shape=link;sketch=1;" parent="1" source="Wuv9j8n0uz5xH8MKSZqj-59" target="Wuv9j8n0uz5xH8MKSZqj-83" edge="1">
          <mxGeometry relative="1" as="geometry" />
        </mxCell>
        <mxCell id="Wuv9j8n0uz5xH8MKSZqj-90" style="rounded=1;orthogonalLoop=1;jettySize=auto;html=1;entryX=0.5;entryY=0;entryDx=0;entryDy=0;endArrow=none;endFill=0;sketch=1;" parent="1" source="Wuv9j8n0uz5xH8MKSZqj-59" target="Wuv9j8n0uz5xH8MKSZqj-89" edge="1">
          <mxGeometry relative="1" as="geometry" />
        </mxCell>
        <mxCell id="Wuv9j8n0uz5xH8MKSZqj-94" style="edgeStyle=orthogonalEdgeStyle;rounded=1;orthogonalLoop=1;jettySize=auto;html=1;sketch=1;" parent="1" source="Wuv9j8n0uz5xH8MKSZqj-59" edge="1">
          <mxGeometry relative="1" as="geometry">
            <mxPoint x="160" y="1430" as="targetPoint" />
          </mxGeometry>
        </mxCell>
        <mxCell id="Wuv9j8n0uz5xH8MKSZqj-59" value="Room" style="shape=ext;margin=3;double=1;whiteSpace=wrap;html=1;align=center;sketch=1;rounded=1;" parent="1" vertex="1">
          <mxGeometry x="260" y="1410" width="100" height="40" as="geometry" />
        </mxCell>
        <mxCell id="Wuv9j8n0uz5xH8MKSZqj-62" value="Name" style="ellipse;whiteSpace=wrap;html=1;align=center;fontStyle=4;sketch=1;rounded=1;" parent="1" vertex="1">
          <mxGeometry x="310" y="1050" width="100" height="40" as="geometry" />
        </mxCell>
        <mxCell id="Wuv9j8n0uz5xH8MKSZqj-64" value="Function" style="ellipse;whiteSpace=wrap;html=1;align=center;sketch=1;rounded=1;" parent="1" vertex="1">
          <mxGeometry x="540" y="1400" width="100" height="40" as="geometry" />
        </mxCell>
        <mxCell id="Wuv9j8n0uz5xH8MKSZqj-65" value="Width" style="ellipse;whiteSpace=wrap;html=1;align=center;sketch=1;rounded=1;" parent="1" vertex="1">
          <mxGeometry x="540" y="1460" width="100" height="40" as="geometry" />
        </mxCell>
        <mxCell id="Wuv9j8n0uz5xH8MKSZqj-66" value="Height" style="ellipse;whiteSpace=wrap;html=1;align=center;sketch=1;rounded=1;" parent="1" vertex="1">
          <mxGeometry x="560" y="1525" width="100" height="40" as="geometry" />
        </mxCell>
        <mxCell id="Wuv9j8n0uz5xH8MKSZqj-71" value="&lt;u&gt;ID&lt;/u&gt;" style="ellipse;whiteSpace=wrap;html=1;align=center;sketch=1;rounded=1;" parent="1" vertex="1">
          <mxGeometry x="400" y="1740" width="100" height="40" as="geometry" />
        </mxCell>
        <mxCell id="Wuv9j8n0uz5xH8MKSZqj-72" value="Name" style="ellipse;whiteSpace=wrap;html=1;align=center;sketch=1;rounded=1;" parent="1" vertex="1">
          <mxGeometry x="260" y="1740" width="100" height="40" as="geometry" />
        </mxCell>
        <mxCell id="Wuv9j8n0uz5xH8MKSZqj-73" value="Description" style="ellipse;whiteSpace=wrap;html=1;align=center;sketch=1;rounded=1;" parent="1" vertex="1">
          <mxGeometry x="140" y="1740" width="100" height="40" as="geometry" />
        </mxCell>
        <mxCell id="Wuv9j8n0uz5xH8MKSZqj-78" value="Date" style="ellipse;whiteSpace=wrap;html=1;align=center;sketch=1;rounded=1;" parent="1" vertex="1">
          <mxGeometry x="435" y="1050" width="100" height="40" as="geometry" />
        </mxCell>
        <mxCell id="Wuv9j8n0uz5xH8MKSZqj-79" value="Area" style="ellipse;whiteSpace=wrap;html=1;align=center;sketch=1;rounded=1;" parent="1" vertex="1">
          <mxGeometry x="170" y="1050" width="100" height="40" as="geometry" />
        </mxCell>
        <mxCell id="Wuv9j8n0uz5xH8MKSZqj-83" value="Have" style="shape=rhombus;double=1;perimeter=rhombusPerimeter;whiteSpace=wrap;html=1;align=center;sketch=1;rounded=1;" parent="1" vertex="1">
          <mxGeometry x="250" y="1280" width="120" height="60" as="geometry" />
        </mxCell>
        <mxCell id="Wuv9j8n0uz5xH8MKSZqj-86" value="1" style="text;html=1;strokeColor=none;fillColor=none;align=center;verticalAlign=middle;whiteSpace=wrap;rounded=1;sketch=1;" parent="1" vertex="1">
          <mxGeometry x="260" y="1245" width="60" height="30" as="geometry" />
        </mxCell>
        <mxCell id="Wuv9j8n0uz5xH8MKSZqj-87" value="N" style="text;html=1;strokeColor=none;fillColor=none;align=center;verticalAlign=middle;whiteSpace=wrap;rounded=1;sketch=1;" parent="1" vertex="1">
          <mxGeometry x="260" y="1360" width="60" height="30" as="geometry" />
        </mxCell>
        <mxCell id="Wuv9j8n0uz5xH8MKSZqj-88" value="&lt;span style=&quot;border-bottom: 1px dotted&quot;&gt;Number&lt;/span&gt;" style="ellipse;whiteSpace=wrap;html=1;align=center;sketch=1;rounded=1;" parent="1" vertex="1">
          <mxGeometry x="540" y="1340" width="100" height="40" as="geometry" />
        </mxCell>
        <mxCell id="Wuv9j8n0uz5xH8MKSZqj-91" style="rounded=1;orthogonalLoop=1;jettySize=auto;html=1;entryX=0.5;entryY=0;entryDx=0;entryDy=0;endArrow=none;endFill=0;sketch=1;" parent="1" source="Wuv9j8n0uz5xH8MKSZqj-89" target="Wuv9j8n0uz5xH8MKSZqj-51" edge="1">
          <mxGeometry relative="1" as="geometry" />
        </mxCell>
        <mxCell id="Wuv9j8n0uz5xH8MKSZqj-89" value="Have" style="shape=rhombus;perimeter=rhombusPerimeter;whiteSpace=wrap;html=1;align=center;sketch=1;rounded=1;" parent="1" vertex="1">
          <mxGeometry x="250" y="1500" width="120" height="60" as="geometry" />
        </mxCell>
        <mxCell id="Wuv9j8n0uz5xH8MKSZqj-92" value="1" style="text;html=1;strokeColor=none;fillColor=none;align=center;verticalAlign=middle;whiteSpace=wrap;rounded=1;sketch=1;" parent="1" vertex="1">
          <mxGeometry x="300" y="1470" width="60" height="30" as="geometry" />
        </mxCell>
        <mxCell id="Wuv9j8n0uz5xH8MKSZqj-93" value="N" style="text;html=1;strokeColor=none;fillColor=none;align=center;verticalAlign=middle;whiteSpace=wrap;rounded=1;sketch=1;" parent="1" vertex="1">
          <mxGeometry x="300" y="1565" width="60" height="30" as="geometry" />
        </mxCell>
        <mxCell id="Wuv9j8n0uz5xH8MKSZqj-95" value="Area" style="ellipse;whiteSpace=wrap;html=1;align=center;dashed=1;sketch=1;rounded=1;" parent="1" vertex="1">
          <mxGeometry x="60" y="1410" width="100" height="40" as="geometry" />
        </mxCell>
        <mxCell id="Wuv9j8n0uz5xH8MKSZqj-96" value="&lt;font style=&quot;font-size: 20px;&quot;&gt;&lt;b&gt;English Learning Center&lt;/b&gt;&lt;/font&gt;" style="rounded=1;whiteSpace=wrap;html=1;sketch=1;" parent="1" vertex="1">
          <mxGeometry x="270" y="1870" width="400" height="120" as="geometry" />
        </mxCell>
        <mxCell id="Wuv9j8n0uz5xH8MKSZqj-106" style="rounded=1;orthogonalLoop=1;jettySize=auto;html=1;entryX=0;entryY=0.5;entryDx=0;entryDy=0;endArrow=none;endFill=0;sketch=1;" parent="1" source="Wuv9j8n0uz5xH8MKSZqj-99" target="Wuv9j8n0uz5xH8MKSZqj-101" edge="1">
          <mxGeometry relative="1" as="geometry" />
        </mxCell>
        <mxCell id="Wuv9j8n0uz5xH8MKSZqj-99" value="Name" style="ellipse;whiteSpace=wrap;html=1;align=center;sketch=1;rounded=1;" parent="1" vertex="1">
          <mxGeometry x="-200" y="2130" width="100" height="40" as="geometry" />
        </mxCell>
        <mxCell id="Wuv9j8n0uz5xH8MKSZqj-107" style="rounded=1;orthogonalLoop=1;jettySize=auto;html=1;entryX=0;entryY=0.5;entryDx=0;entryDy=0;endArrow=none;endFill=0;sketch=1;" parent="1" source="Wuv9j8n0uz5xH8MKSZqj-100" target="Wuv9j8n0uz5xH8MKSZqj-101" edge="1">
          <mxGeometry relative="1" as="geometry" />
        </mxCell>
        <mxCell id="Wuv9j8n0uz5xH8MKSZqj-100" value="Decrisption" style="ellipse;whiteSpace=wrap;html=1;align=center;sketch=1;rounded=1;" parent="1" vertex="1">
          <mxGeometry x="-200" y="2200" width="100" height="40" as="geometry" />
        </mxCell>
        <mxCell id="Wuv9j8n0uz5xH8MKSZqj-101" value="Course" style="whiteSpace=wrap;html=1;align=center;sketch=1;rounded=1;" parent="1" vertex="1">
          <mxGeometry x="130" y="2100" width="100" height="40" as="geometry" />
        </mxCell>
        <mxCell id="Wuv9j8n0uz5xH8MKSZqj-105" style="rounded=1;orthogonalLoop=1;jettySize=auto;html=1;entryX=0;entryY=0.5;entryDx=0;entryDy=0;endArrow=none;endFill=0;sketch=1;" parent="1" source="Wuv9j8n0uz5xH8MKSZqj-103" target="Wuv9j8n0uz5xH8MKSZqj-101" edge="1">
          <mxGeometry relative="1" as="geometry" />
        </mxCell>
        <mxCell id="Wuv9j8n0uz5xH8MKSZqj-103" value="ID" style="ellipse;whiteSpace=wrap;html=1;align=center;fontStyle=4;sketch=1;rounded=1;" parent="1" vertex="1">
          <mxGeometry x="-200" y="2050" width="100" height="40" as="geometry" />
        </mxCell>
        <mxCell id="Wuv9j8n0uz5xH8MKSZqj-112" value="Name" style="ellipse;whiteSpace=wrap;html=1;align=center;sketch=1;rounded=1;" parent="1" vertex="1">
          <mxGeometry x="560" y="2210" width="100" height="40" as="geometry" />
        </mxCell>
        <mxCell id="Wuv9j8n0uz5xH8MKSZqj-113" value="ID" style="ellipse;whiteSpace=wrap;html=1;align=center;fontStyle=4;sketch=1;rounded=1;" parent="1" vertex="1">
          <mxGeometry x="560" y="2140" width="100" height="40" as="geometry" />
        </mxCell>
        <mxCell id="Wuv9j8n0uz5xH8MKSZqj-114" value="Room" style="ellipse;whiteSpace=wrap;html=1;align=center;sketch=1;rounded=1;" parent="1" vertex="1">
          <mxGeometry x="560" y="2280" width="100" height="40" as="geometry" />
        </mxCell>
        <mxCell id="Wuv9j8n0uz5xH8MKSZqj-115" value="Session" style="ellipse;whiteSpace=wrap;html=1;align=center;sketch=1;rounded=1;" parent="1" vertex="1">
          <mxGeometry x="560" y="2350" width="100" height="40" as="geometry" />
        </mxCell>
        <mxCell id="Wuv9j8n0uz5xH8MKSZqj-116" value="Start" style="ellipse;whiteSpace=wrap;html=1;align=center;sketch=1;rounded=1;" parent="1" vertex="1">
          <mxGeometry x="560" y="2420" width="100" height="40" as="geometry" />
        </mxCell>
        <mxCell id="Wuv9j8n0uz5xH8MKSZqj-117" value="End" style="ellipse;whiteSpace=wrap;html=1;align=center;sketch=1;rounded=1;" parent="1" vertex="1">
          <mxGeometry x="560" y="2490" width="100" height="40" as="geometry" />
        </mxCell>
        <mxCell id="Wuv9j8n0uz5xH8MKSZqj-118" value="Whole Time" style="ellipse;whiteSpace=wrap;html=1;align=center;dashed=1;sketch=1;rounded=1;" parent="1" vertex="1">
          <mxGeometry x="560" y="2560" width="100" height="40" as="geometry" />
        </mxCell>
        <mxCell id="Wuv9j8n0uz5xH8MKSZqj-135" style="rounded=1;orthogonalLoop=1;jettySize=auto;html=1;entryX=0;entryY=0.5;entryDx=0;entryDy=0;endArrow=none;endFill=0;sketch=1;" parent="1" source="Wuv9j8n0uz5xH8MKSZqj-120" target="Wuv9j8n0uz5xH8MKSZqj-113" edge="1">
          <mxGeometry relative="1" as="geometry" />
        </mxCell>
        <mxCell id="Wuv9j8n0uz5xH8MKSZqj-136" style="rounded=1;orthogonalLoop=1;jettySize=auto;html=1;entryX=0;entryY=0.5;entryDx=0;entryDy=0;endArrow=none;endFill=0;sketch=1;" parent="1" source="Wuv9j8n0uz5xH8MKSZqj-120" target="Wuv9j8n0uz5xH8MKSZqj-112" edge="1">
          <mxGeometry relative="1" as="geometry" />
        </mxCell>
        <mxCell id="Wuv9j8n0uz5xH8MKSZqj-137" style="rounded=1;orthogonalLoop=1;jettySize=auto;html=1;entryX=0;entryY=0.5;entryDx=0;entryDy=0;endArrow=none;endFill=0;sketch=1;" parent="1" source="Wuv9j8n0uz5xH8MKSZqj-120" target="Wuv9j8n0uz5xH8MKSZqj-114" edge="1">
          <mxGeometry relative="1" as="geometry" />
        </mxCell>
        <mxCell id="Wuv9j8n0uz5xH8MKSZqj-138" style="rounded=1;orthogonalLoop=1;jettySize=auto;html=1;entryX=0;entryY=0.5;entryDx=0;entryDy=0;endArrow=none;endFill=0;sketch=1;" parent="1" source="Wuv9j8n0uz5xH8MKSZqj-120" target="Wuv9j8n0uz5xH8MKSZqj-115" edge="1">
          <mxGeometry relative="1" as="geometry" />
        </mxCell>
        <mxCell id="Wuv9j8n0uz5xH8MKSZqj-139" style="rounded=1;orthogonalLoop=1;jettySize=auto;html=1;entryX=0;entryY=0.5;entryDx=0;entryDy=0;endArrow=none;endFill=0;sketch=1;" parent="1" source="Wuv9j8n0uz5xH8MKSZqj-120" target="Wuv9j8n0uz5xH8MKSZqj-116" edge="1">
          <mxGeometry relative="1" as="geometry" />
        </mxCell>
        <mxCell id="Wuv9j8n0uz5xH8MKSZqj-140" style="rounded=1;orthogonalLoop=1;jettySize=auto;html=1;entryX=0;entryY=0.5;entryDx=0;entryDy=0;endArrow=none;endFill=0;sketch=1;" parent="1" source="Wuv9j8n0uz5xH8MKSZqj-120" target="Wuv9j8n0uz5xH8MKSZqj-117" edge="1">
          <mxGeometry relative="1" as="geometry" />
        </mxCell>
        <mxCell id="Wuv9j8n0uz5xH8MKSZqj-141" style="rounded=1;orthogonalLoop=1;jettySize=auto;html=1;entryX=0;entryY=0.5;entryDx=0;entryDy=0;endArrow=none;endFill=0;sketch=1;" parent="1" source="Wuv9j8n0uz5xH8MKSZqj-120" target="Wuv9j8n0uz5xH8MKSZqj-118" edge="1">
          <mxGeometry relative="1" as="geometry" />
        </mxCell>
        <mxCell id="50oOgXxluQxWrbX13Ne8-4" style="rounded=1;orthogonalLoop=1;jettySize=auto;html=1;entryX=0.5;entryY=1;entryDx=0;entryDy=0;endArrow=none;endFill=0;shape=link;sketch=1;" edge="1" parent="1" source="Wuv9j8n0uz5xH8MKSZqj-120" target="50oOgXxluQxWrbX13Ne8-2">
          <mxGeometry relative="1" as="geometry" />
        </mxCell>
        <mxCell id="Wuv9j8n0uz5xH8MKSZqj-120" value="Class" style="whiteSpace=wrap;html=1;align=center;sketch=1;rounded=1;" parent="1" vertex="1">
          <mxGeometry x="130" y="2370" width="100" height="40" as="geometry" />
        </mxCell>
        <mxCell id="50oOgXxluQxWrbX13Ne8-8" style="edgeStyle=none;rounded=1;orthogonalLoop=1;jettySize=auto;html=1;entryX=0.5;entryY=1;entryDx=0;entryDy=0;endArrow=none;endFill=0;sketch=1;" edge="1" parent="1" source="Wuv9j8n0uz5xH8MKSZqj-121" target="50oOgXxluQxWrbX13Ne8-7">
          <mxGeometry relative="1" as="geometry" />
        </mxCell>
        <mxCell id="Wuv9j8n0uz5xH8MKSZqj-121" value="Teacher" style="whiteSpace=wrap;html=1;align=center;sketch=1;rounded=1;" parent="1" vertex="1">
          <mxGeometry x="130" y="2630" width="100" height="40" as="geometry" />
        </mxCell>
        <mxCell id="Wuv9j8n0uz5xH8MKSZqj-149" style="rounded=1;orthogonalLoop=1;jettySize=auto;html=1;entryX=0.5;entryY=1;entryDx=0;entryDy=0;endArrow=none;endFill=0;sketch=1;" parent="1" source="Wuv9j8n0uz5xH8MKSZqj-122" target="Wuv9j8n0uz5xH8MKSZqj-121" edge="1">
          <mxGeometry relative="1" as="geometry" />
        </mxCell>
        <mxCell id="Wuv9j8n0uz5xH8MKSZqj-122" value="ID" style="ellipse;whiteSpace=wrap;html=1;align=center;fontStyle=4;sketch=1;rounded=1;" parent="1" vertex="1">
          <mxGeometry x="240" y="2840" width="100" height="40" as="geometry" />
        </mxCell>
        <mxCell id="Wuv9j8n0uz5xH8MKSZqj-150" style="rounded=1;orthogonalLoop=1;jettySize=auto;html=1;endArrow=none;endFill=0;entryX=0.5;entryY=1;entryDx=0;entryDy=0;sketch=1;" parent="1" source="Wuv9j8n0uz5xH8MKSZqj-123" edge="1" target="Wuv9j8n0uz5xH8MKSZqj-121">
          <mxGeometry relative="1" as="geometry">
            <mxPoint x="160" y="2680" as="targetPoint" />
          </mxGeometry>
        </mxCell>
        <mxCell id="Wuv9j8n0uz5xH8MKSZqj-123" value="Name" style="ellipse;whiteSpace=wrap;html=1;align=center;sketch=1;rounded=1;" parent="1" vertex="1">
          <mxGeometry x="470" y="2820" width="100" height="40" as="geometry" />
        </mxCell>
        <mxCell id="Wuv9j8n0uz5xH8MKSZqj-151" style="rounded=1;orthogonalLoop=1;jettySize=auto;html=1;endArrow=none;endFill=0;entryX=0.5;entryY=1;entryDx=0;entryDy=0;sketch=1;" parent="1" source="Wuv9j8n0uz5xH8MKSZqj-124" edge="1" target="Wuv9j8n0uz5xH8MKSZqj-121">
          <mxGeometry relative="1" as="geometry">
            <mxPoint x="160" y="2680" as="targetPoint" />
          </mxGeometry>
        </mxCell>
        <mxCell id="Wuv9j8n0uz5xH8MKSZqj-124" value="DoB" style="ellipse;whiteSpace=wrap;html=1;align=center;sketch=1;rounded=1;" parent="1" vertex="1">
          <mxGeometry x="-160" y="2820" width="100" height="40" as="geometry" />
        </mxCell>
        <mxCell id="Wuv9j8n0uz5xH8MKSZqj-153" style="rounded=1;orthogonalLoop=1;jettySize=auto;html=1;entryX=0.5;entryY=1;entryDx=0;entryDy=0;endArrow=none;endFill=0;sketch=1;" parent="1" source="Wuv9j8n0uz5xH8MKSZqj-125" target="Wuv9j8n0uz5xH8MKSZqj-121" edge="1">
          <mxGeometry relative="1" as="geometry" />
        </mxCell>
        <mxCell id="Wuv9j8n0uz5xH8MKSZqj-125" value="Phone Number" style="ellipse;whiteSpace=wrap;html=1;align=center;sketch=1;rounded=1;" parent="1" vertex="1">
          <mxGeometry x="-20" y="2850" width="100" height="40" as="geometry" />
        </mxCell>
        <mxCell id="Wuv9j8n0uz5xH8MKSZqj-154" style="rounded=1;orthogonalLoop=1;jettySize=auto;html=1;endArrow=none;endFill=0;entryX=0.5;entryY=1;entryDx=0;entryDy=0;sketch=1;" parent="1" source="Wuv9j8n0uz5xH8MKSZqj-126" edge="1" target="Wuv9j8n0uz5xH8MKSZqj-121">
          <mxGeometry relative="1" as="geometry">
            <mxPoint x="160" y="2680" as="targetPoint" />
          </mxGeometry>
        </mxCell>
        <mxCell id="Wuv9j8n0uz5xH8MKSZqj-126" value="Address" style="ellipse;whiteSpace=wrap;html=1;align=center;sketch=1;rounded=1;" parent="1" vertex="1">
          <mxGeometry x="110" y="2850" width="100" height="40" as="geometry" />
        </mxCell>
        <mxCell id="Wuv9j8n0uz5xH8MKSZqj-155" style="rounded=1;orthogonalLoop=1;jettySize=auto;html=1;endArrow=none;endFill=0;entryX=0.5;entryY=1;entryDx=0;entryDy=0;sketch=1;" parent="1" source="Wuv9j8n0uz5xH8MKSZqj-127" edge="1" target="Wuv9j8n0uz5xH8MKSZqj-121">
          <mxGeometry relative="1" as="geometry">
            <mxPoint x="160" y="2680" as="targetPoint" />
          </mxGeometry>
        </mxCell>
        <mxCell id="Wuv9j8n0uz5xH8MKSZqj-127" value="Certifications" style="ellipse;whiteSpace=wrap;html=1;align=center;sketch=1;rounded=1;" parent="1" vertex="1">
          <mxGeometry x="340" y="2830" width="100" height="40" as="geometry" />
        </mxCell>
        <mxCell id="Wuv9j8n0uz5xH8MKSZqj-143" style="rounded=1;orthogonalLoop=1;jettySize=auto;html=1;entryX=0;entryY=0.5;entryDx=0;entryDy=0;endArrow=none;endFill=0;sketch=1;" parent="1" source="Wuv9j8n0uz5xH8MKSZqj-128" target="Wuv9j8n0uz5xH8MKSZqj-130" edge="1">
          <mxGeometry relative="1" as="geometry" />
        </mxCell>
        <mxCell id="Wuv9j8n0uz5xH8MKSZqj-144" style="rounded=1;orthogonalLoop=1;jettySize=auto;html=1;entryX=0;entryY=0.5;entryDx=0;entryDy=0;endArrow=none;endFill=0;sketch=1;" parent="1" source="Wuv9j8n0uz5xH8MKSZqj-128" target="Wuv9j8n0uz5xH8MKSZqj-129" edge="1">
          <mxGeometry relative="1" as="geometry" />
        </mxCell>
        <mxCell id="Wuv9j8n0uz5xH8MKSZqj-145" style="rounded=1;orthogonalLoop=1;jettySize=auto;html=1;entryX=0;entryY=0.5;entryDx=0;entryDy=0;endArrow=none;endFill=0;sketch=1;" parent="1" source="Wuv9j8n0uz5xH8MKSZqj-128" target="Wuv9j8n0uz5xH8MKSZqj-131" edge="1">
          <mxGeometry relative="1" as="geometry" />
        </mxCell>
        <mxCell id="Wuv9j8n0uz5xH8MKSZqj-146" style="rounded=1;orthogonalLoop=1;jettySize=auto;html=1;entryX=0;entryY=0.5;entryDx=0;entryDy=0;endArrow=none;endFill=0;sketch=1;" parent="1" source="Wuv9j8n0uz5xH8MKSZqj-128" target="Wuv9j8n0uz5xH8MKSZqj-132" edge="1">
          <mxGeometry relative="1" as="geometry" />
        </mxCell>
        <mxCell id="Wuv9j8n0uz5xH8MKSZqj-147" style="rounded=1;orthogonalLoop=1;jettySize=auto;html=1;entryX=0;entryY=0.5;entryDx=0;entryDy=0;endArrow=none;endFill=0;sketch=1;" parent="1" source="Wuv9j8n0uz5xH8MKSZqj-128" target="Wuv9j8n0uz5xH8MKSZqj-133" edge="1">
          <mxGeometry relative="1" as="geometry" />
        </mxCell>
        <mxCell id="Wuv9j8n0uz5xH8MKSZqj-148" style="rounded=1;orthogonalLoop=1;jettySize=auto;html=1;entryX=0;entryY=0.5;entryDx=0;entryDy=0;endArrow=none;endFill=0;sketch=1;" parent="1" source="Wuv9j8n0uz5xH8MKSZqj-128" target="Wuv9j8n0uz5xH8MKSZqj-134" edge="1">
          <mxGeometry relative="1" as="geometry" />
        </mxCell>
        <mxCell id="50oOgXxluQxWrbX13Ne8-19" style="edgeStyle=none;shape=link;rounded=1;orthogonalLoop=1;jettySize=auto;html=1;entryX=0;entryY=0.5;entryDx=0;entryDy=0;endArrow=none;endFill=0;sketch=1;" edge="1" parent="1" source="Wuv9j8n0uz5xH8MKSZqj-128" target="50oOgXxluQxWrbX13Ne8-16">
          <mxGeometry relative="1" as="geometry" />
        </mxCell>
        <mxCell id="Wuv9j8n0uz5xH8MKSZqj-128" value="Student" style="whiteSpace=wrap;html=1;align=center;sketch=1;rounded=1;" parent="1" vertex="1">
          <mxGeometry x="-220" y="2370" width="100" height="40" as="geometry" />
        </mxCell>
        <mxCell id="Wuv9j8n0uz5xH8MKSZqj-129" value="Name" style="ellipse;whiteSpace=wrap;html=1;align=center;sketch=1;rounded=1;" parent="1" vertex="1">
          <mxGeometry x="-410" y="2320" width="100" height="40" as="geometry" />
        </mxCell>
        <mxCell id="Wuv9j8n0uz5xH8MKSZqj-130" value="ID" style="ellipse;whiteSpace=wrap;html=1;align=center;fontStyle=4;sketch=1;rounded=1;" parent="1" vertex="1">
          <mxGeometry x="-410" y="2240" width="100" height="40" as="geometry" />
        </mxCell>
        <mxCell id="Wuv9j8n0uz5xH8MKSZqj-131" value="DoB" style="ellipse;whiteSpace=wrap;html=1;align=center;sketch=1;rounded=1;" parent="1" vertex="1">
          <mxGeometry x="-410" y="2380" width="100" height="40" as="geometry" />
        </mxCell>
        <mxCell id="Wuv9j8n0uz5xH8MKSZqj-132" value="Adđress" style="ellipse;whiteSpace=wrap;html=1;align=center;sketch=1;rounded=1;" parent="1" vertex="1">
          <mxGeometry x="-410" y="2440" width="100" height="40" as="geometry" />
        </mxCell>
        <mxCell id="Wuv9j8n0uz5xH8MKSZqj-133" value="Phone Number" style="ellipse;whiteSpace=wrap;html=1;align=center;sketch=1;rounded=1;" parent="1" vertex="1">
          <mxGeometry x="-420" y="2510" width="100" height="40" as="geometry" />
        </mxCell>
        <mxCell id="Wuv9j8n0uz5xH8MKSZqj-134" value="Result" style="ellipse;whiteSpace=wrap;html=1;align=center;sketch=1;rounded=1;" parent="1" vertex="1">
          <mxGeometry x="-440" y="2580" width="100" height="40" as="geometry" />
        </mxCell>
        <mxCell id="50oOgXxluQxWrbX13Ne8-3" style="rounded=1;orthogonalLoop=1;jettySize=auto;html=1;entryX=0.5;entryY=1;entryDx=0;entryDy=0;endArrow=none;endFill=0;shape=link;sketch=1;" edge="1" parent="1" source="50oOgXxluQxWrbX13Ne8-2" target="Wuv9j8n0uz5xH8MKSZqj-101">
          <mxGeometry relative="1" as="geometry" />
        </mxCell>
        <mxCell id="50oOgXxluQxWrbX13Ne8-2" value="Have" style="shape=rhombus;perimeter=rhombusPerimeter;whiteSpace=wrap;html=1;align=center;sketch=1;rounded=1;" vertex="1" parent="1">
          <mxGeometry x="120" y="2230" width="120" height="60" as="geometry" />
        </mxCell>
        <mxCell id="50oOgXxluQxWrbX13Ne8-5" value="1" style="text;html=1;strokeColor=none;fillColor=none;align=center;verticalAlign=middle;whiteSpace=wrap;rounded=1;sketch=1;" vertex="1" parent="1">
          <mxGeometry x="170" y="2180" width="60" height="30" as="geometry" />
        </mxCell>
        <mxCell id="50oOgXxluQxWrbX13Ne8-6" value="N" style="text;html=1;strokeColor=none;fillColor=none;align=center;verticalAlign=middle;whiteSpace=wrap;rounded=1;sketch=1;" vertex="1" parent="1">
          <mxGeometry x="170" y="2310" width="60" height="30" as="geometry" />
        </mxCell>
        <mxCell id="50oOgXxluQxWrbX13Ne8-9" style="edgeStyle=none;rounded=1;orthogonalLoop=1;jettySize=auto;html=1;entryX=0.5;entryY=1;entryDx=0;entryDy=0;endArrow=none;endFill=0;shape=link;sketch=1;" edge="1" parent="1" source="50oOgXxluQxWrbX13Ne8-7" target="Wuv9j8n0uz5xH8MKSZqj-120">
          <mxGeometry relative="1" as="geometry" />
        </mxCell>
        <mxCell id="50oOgXxluQxWrbX13Ne8-7" value="Have" style="shape=rhombus;perimeter=rhombusPerimeter;whiteSpace=wrap;html=1;align=center;sketch=1;rounded=1;" vertex="1" parent="1">
          <mxGeometry x="120" y="2490" width="120" height="60" as="geometry" />
        </mxCell>
        <mxCell id="50oOgXxluQxWrbX13Ne8-14" value="1" style="text;html=1;strokeColor=none;fillColor=none;align=center;verticalAlign=middle;whiteSpace=wrap;rounded=1;sketch=1;" vertex="1" parent="1">
          <mxGeometry x="190" y="2440" width="60" height="30" as="geometry" />
        </mxCell>
        <mxCell id="50oOgXxluQxWrbX13Ne8-15" value="N" style="text;html=1;strokeColor=none;fillColor=none;align=center;verticalAlign=middle;whiteSpace=wrap;rounded=1;sketch=1;" vertex="1" parent="1">
          <mxGeometry x="190" y="2570" width="60" height="30" as="geometry" />
        </mxCell>
        <mxCell id="50oOgXxluQxWrbX13Ne8-20" value="" style="edgeStyle=none;shape=link;rounded=1;orthogonalLoop=1;jettySize=auto;html=1;endArrow=none;endFill=0;sketch=1;" edge="1" parent="1" source="50oOgXxluQxWrbX13Ne8-16" target="Wuv9j8n0uz5xH8MKSZqj-120">
          <mxGeometry relative="1" as="geometry" />
        </mxCell>
        <mxCell id="50oOgXxluQxWrbX13Ne8-16" value="Have" style="shape=rhombus;perimeter=rhombusPerimeter;whiteSpace=wrap;html=1;align=center;sketch=1;rounded=1;" vertex="1" parent="1">
          <mxGeometry x="-50" y="2360" width="120" height="60" as="geometry" />
        </mxCell>
        <mxCell id="50oOgXxluQxWrbX13Ne8-25" value="1" style="text;html=1;strokeColor=none;fillColor=none;align=center;verticalAlign=middle;whiteSpace=wrap;rounded=1;sketch=1;" vertex="1" parent="1">
          <mxGeometry x="70" y="2350" width="60" height="30" as="geometry" />
        </mxCell>
        <mxCell id="50oOgXxluQxWrbX13Ne8-26" value="N" style="text;html=1;strokeColor=none;fillColor=none;align=center;verticalAlign=middle;whiteSpace=wrap;rounded=1;sketch=1;" vertex="1" parent="1">
          <mxGeometry x="-110" y="2350" width="60" height="30" as="geometry" />
        </mxCell>
        <mxCell id="50oOgXxluQxWrbX13Ne8-28" value="" style="endArrow=none;html=1;rounded=1;shape=link;sketch=1;" edge="1" parent="1">
          <mxGeometry width="50" height="50" relative="1" as="geometry">
            <mxPoint x="840" y="1966.6666666666667" as="sourcePoint" />
            <mxPoint x="840" y="790" as="targetPoint" />
          </mxGeometry>
        </mxCell>
        <mxCell id="50oOgXxluQxWrbX13Ne8-29" value="&lt;font style=&quot;font-size: 20px;&quot;&gt;&lt;b&gt;Company&lt;/b&gt;&lt;/font&gt;" style="rounded=1;whiteSpace=wrap;html=1;sketch=1;" vertex="1" parent="1">
          <mxGeometry x="1180" y="660" width="400" height="120" as="geometry" />
        </mxCell>
        <mxCell id="50oOgXxluQxWrbX13Ne8-46" style="edgeStyle=none;rounded=1;sketch=1;hachureGap=4;jiggle=2;orthogonalLoop=1;jettySize=auto;html=1;exitX=0.75;exitY=0;exitDx=0;exitDy=0;entryX=0.5;entryY=1;entryDx=0;entryDy=0;fontFamily=Architects Daughter;fontSource=https%3A%2F%2Ffonts.googleapis.com%2Fcss%3Ffamily%3DArchitects%2BDaughter;fontSize=16;endArrow=none;endFill=0;" edge="1" parent="1" source="50oOgXxluQxWrbX13Ne8-30" target="50oOgXxluQxWrbX13Ne8-35">
          <mxGeometry relative="1" as="geometry" />
        </mxCell>
        <mxCell id="50oOgXxluQxWrbX13Ne8-47" style="edgeStyle=none;rounded=1;sketch=1;hachureGap=4;jiggle=2;orthogonalLoop=1;jettySize=auto;html=1;exitX=0.75;exitY=0;exitDx=0;exitDy=0;entryX=0.5;entryY=1;entryDx=0;entryDy=0;fontFamily=Architects Daughter;fontSource=https%3A%2F%2Ffonts.googleapis.com%2Fcss%3Ffamily%3DArchitects%2BDaughter;fontSize=16;endArrow=none;endFill=0;" edge="1" parent="1" source="50oOgXxluQxWrbX13Ne8-30" target="50oOgXxluQxWrbX13Ne8-37">
          <mxGeometry relative="1" as="geometry" />
        </mxCell>
        <mxCell id="50oOgXxluQxWrbX13Ne8-48" style="edgeStyle=none;rounded=1;sketch=1;hachureGap=4;jiggle=2;orthogonalLoop=1;jettySize=auto;html=1;exitX=0.75;exitY=0;exitDx=0;exitDy=0;entryX=0.5;entryY=1;entryDx=0;entryDy=0;fontFamily=Architects Daughter;fontSource=https%3A%2F%2Ffonts.googleapis.com%2Fcss%3Ffamily%3DArchitects%2BDaughter;fontSize=16;endArrow=none;endFill=0;" edge="1" parent="1" source="50oOgXxluQxWrbX13Ne8-30" target="50oOgXxluQxWrbX13Ne8-39">
          <mxGeometry relative="1" as="geometry" />
        </mxCell>
        <mxCell id="50oOgXxluQxWrbX13Ne8-49" style="edgeStyle=none;rounded=1;sketch=1;hachureGap=4;jiggle=2;orthogonalLoop=1;jettySize=auto;html=1;exitX=0.75;exitY=0;exitDx=0;exitDy=0;entryX=0.5;entryY=1;entryDx=0;entryDy=0;fontFamily=Architects Daughter;fontSource=https%3A%2F%2Ffonts.googleapis.com%2Fcss%3Ffamily%3DArchitects%2BDaughter;fontSize=16;endArrow=none;endFill=0;" edge="1" parent="1" source="50oOgXxluQxWrbX13Ne8-30" target="50oOgXxluQxWrbX13Ne8-41">
          <mxGeometry relative="1" as="geometry" />
        </mxCell>
        <mxCell id="50oOgXxluQxWrbX13Ne8-80" style="edgeStyle=none;rounded=1;sketch=1;hachureGap=4;jiggle=2;orthogonalLoop=1;jettySize=auto;html=1;entryX=0.5;entryY=0;entryDx=0;entryDy=0;fontFamily=Architects Daughter;fontSource=https%3A%2F%2Ffonts.googleapis.com%2Fcss%3Ffamily%3DArchitects%2BDaughter;fontSize=16;endArrow=none;endFill=0;" edge="1" parent="1" source="50oOgXxluQxWrbX13Ne8-30" target="50oOgXxluQxWrbX13Ne8-60">
          <mxGeometry relative="1" as="geometry" />
        </mxCell>
        <mxCell id="50oOgXxluQxWrbX13Ne8-30" value="Customer" style="whiteSpace=wrap;html=1;align=center;rounded=1;sketch=1;hachureGap=4;jiggle=2;fontFamily=Architects Daughter;fontSource=https%3A%2F%2Ffonts.googleapis.com%2Fcss%3Ffamily%3DArchitects%2BDaughter;fontSize=20;" vertex="1" parent="1">
          <mxGeometry x="1310" y="1040" width="100" height="40" as="geometry" />
        </mxCell>
        <mxCell id="50oOgXxluQxWrbX13Ne8-45" style="edgeStyle=none;rounded=1;sketch=1;hachureGap=4;jiggle=2;orthogonalLoop=1;jettySize=auto;html=1;entryX=0.5;entryY=0;entryDx=0;entryDy=0;fontFamily=Architects Daughter;fontSource=https%3A%2F%2Ffonts.googleapis.com%2Fcss%3Ffamily%3DArchitects%2BDaughter;fontSize=16;endArrow=none;endFill=0;" edge="1" parent="1" source="50oOgXxluQxWrbX13Ne8-31" target="50oOgXxluQxWrbX13Ne8-30">
          <mxGeometry relative="1" as="geometry" />
        </mxCell>
        <mxCell id="50oOgXxluQxWrbX13Ne8-31" value="DoB" style="ellipse;whiteSpace=wrap;html=1;align=center;rounded=1;sketch=1;hachureGap=4;jiggle=2;fontFamily=Architects Daughter;fontSource=https%3A%2F%2Ffonts.googleapis.com%2Fcss%3Ffamily%3DArchitects%2BDaughter;fontSize=20;" vertex="1" parent="1">
          <mxGeometry x="1310" y="920" width="100" height="40" as="geometry" />
        </mxCell>
        <mxCell id="50oOgXxluQxWrbX13Ne8-43" style="rounded=1;sketch=1;hachureGap=4;jiggle=2;orthogonalLoop=1;jettySize=auto;html=1;entryX=0.25;entryY=0;entryDx=0;entryDy=0;fontFamily=Architects Daughter;fontSource=https%3A%2F%2Ffonts.googleapis.com%2Fcss%3Ffamily%3DArchitects%2BDaughter;fontSize=16;endArrow=none;endFill=0;" edge="1" parent="1" source="50oOgXxluQxWrbX13Ne8-32" target="50oOgXxluQxWrbX13Ne8-30">
          <mxGeometry relative="1" as="geometry" />
        </mxCell>
        <mxCell id="50oOgXxluQxWrbX13Ne8-32" value="ID" style="ellipse;whiteSpace=wrap;html=1;align=center;fontStyle=4;rounded=1;sketch=1;hachureGap=4;jiggle=2;fontFamily=Architects Daughter;fontSource=https%3A%2F%2Ffonts.googleapis.com%2Fcss%3Ffamily%3DArchitects%2BDaughter;fontSize=20;" vertex="1" parent="1">
          <mxGeometry x="1020" y="920" width="100" height="40" as="geometry" />
        </mxCell>
        <mxCell id="50oOgXxluQxWrbX13Ne8-44" style="rounded=1;sketch=1;hachureGap=4;jiggle=2;orthogonalLoop=1;jettySize=auto;html=1;entryX=0.25;entryY=0;entryDx=0;entryDy=0;fontFamily=Architects Daughter;fontSource=https%3A%2F%2Ffonts.googleapis.com%2Fcss%3Ffamily%3DArchitects%2BDaughter;fontSize=16;endArrow=none;endFill=0;" edge="1" parent="1" source="50oOgXxluQxWrbX13Ne8-33" target="50oOgXxluQxWrbX13Ne8-30">
          <mxGeometry relative="1" as="geometry" />
        </mxCell>
        <mxCell id="50oOgXxluQxWrbX13Ne8-33" value="NAME" style="ellipse;whiteSpace=wrap;html=1;align=center;rounded=1;sketch=1;hachureGap=4;jiggle=2;fontFamily=Architects Daughter;fontSource=https%3A%2F%2Ffonts.googleapis.com%2Fcss%3Ffamily%3DArchitects%2BDaughter;fontSize=20;" vertex="1" parent="1">
          <mxGeometry x="1160" y="920" width="100" height="40" as="geometry" />
        </mxCell>
        <mxCell id="50oOgXxluQxWrbX13Ne8-35" value="PhoneNUM" style="ellipse;shape=doubleEllipse;margin=3;whiteSpace=wrap;html=1;align=center;rounded=1;sketch=1;hachureGap=4;jiggle=2;fontFamily=Architects Daughter;fontSource=https%3A%2F%2Ffonts.googleapis.com%2Fcss%3Ffamily%3DArchitects%2BDaughter;fontSize=20;" vertex="1" parent="1">
          <mxGeometry x="1460" y="920" width="100" height="40" as="geometry" />
        </mxCell>
        <mxCell id="50oOgXxluQxWrbX13Ne8-37" value="EMAIL" style="ellipse;shape=doubleEllipse;margin=3;whiteSpace=wrap;html=1;align=center;rounded=1;sketch=1;hachureGap=4;jiggle=2;fontFamily=Architects Daughter;fontSource=https%3A%2F%2Ffonts.googleapis.com%2Fcss%3Ffamily%3DArchitects%2BDaughter;fontSize=20;" vertex="1" parent="1">
          <mxGeometry x="1610" y="920" width="100" height="40" as="geometry" />
        </mxCell>
        <mxCell id="50oOgXxluQxWrbX13Ne8-39" value="SEX" style="ellipse;shape=doubleEllipse;margin=3;whiteSpace=wrap;html=1;align=center;rounded=1;sketch=1;hachureGap=4;jiggle=2;fontFamily=Architects Daughter;fontSource=https%3A%2F%2Ffonts.googleapis.com%2Fcss%3Ffamily%3DArchitects%2BDaughter;fontSize=20;" vertex="1" parent="1">
          <mxGeometry x="1760" y="920" width="100" height="40" as="geometry" />
        </mxCell>
        <mxCell id="50oOgXxluQxWrbX13Ne8-42" style="rounded=1;sketch=1;hachureGap=4;jiggle=2;orthogonalLoop=1;jettySize=auto;html=1;entryX=0.25;entryY=0;entryDx=0;entryDy=0;fontFamily=Architects Daughter;fontSource=https%3A%2F%2Ffonts.googleapis.com%2Fcss%3Ffamily%3DArchitects%2BDaughter;fontSize=16;endArrow=none;endFill=0;" edge="1" parent="1" source="50oOgXxluQxWrbX13Ne8-40" target="50oOgXxluQxWrbX13Ne8-30">
          <mxGeometry relative="1" as="geometry" />
        </mxCell>
        <mxCell id="50oOgXxluQxWrbX13Ne8-40" value="PROFILE" style="ellipse;whiteSpace=wrap;html=1;align=center;rounded=1;sketch=1;hachureGap=4;jiggle=2;fontFamily=Architects Daughter;fontSource=https%3A%2F%2Ffonts.googleapis.com%2Fcss%3Ffamily%3DArchitects%2BDaughter;fontSize=20;" vertex="1" parent="1">
          <mxGeometry x="880" y="920" width="100" height="40" as="geometry" />
        </mxCell>
        <mxCell id="50oOgXxluQxWrbX13Ne8-41" value="TYPE" style="ellipse;shape=doubleEllipse;margin=3;whiteSpace=wrap;html=1;align=center;rounded=1;sketch=1;hachureGap=4;jiggle=2;fontFamily=Architects Daughter;fontSource=https%3A%2F%2Ffonts.googleapis.com%2Fcss%3Ffamily%3DArchitects%2BDaughter;fontSize=20;" vertex="1" parent="1">
          <mxGeometry x="1910" y="920" width="100" height="40" as="geometry" />
        </mxCell>
        <mxCell id="50oOgXxluQxWrbX13Ne8-58" style="edgeStyle=none;rounded=1;sketch=1;hachureGap=4;jiggle=2;orthogonalLoop=1;jettySize=auto;html=1;exitX=0;exitY=0.5;exitDx=0;exitDy=0;entryX=0;entryY=0.5;entryDx=0;entryDy=0;fontFamily=Architects Daughter;fontSource=https%3A%2F%2Ffonts.googleapis.com%2Fcss%3Ffamily%3DArchitects%2BDaughter;fontSize=16;endArrow=none;endFill=0;" edge="1" parent="1" source="50oOgXxluQxWrbX13Ne8-50" target="50oOgXxluQxWrbX13Ne8-54">
          <mxGeometry relative="1" as="geometry" />
        </mxCell>
        <mxCell id="50oOgXxluQxWrbX13Ne8-59" style="edgeStyle=none;rounded=1;sketch=1;hachureGap=4;jiggle=2;orthogonalLoop=1;jettySize=auto;html=1;exitX=0;exitY=0.5;exitDx=0;exitDy=0;entryX=1;entryY=0.5;entryDx=0;entryDy=0;fontFamily=Architects Daughter;fontSource=https%3A%2F%2Ffonts.googleapis.com%2Fcss%3Ffamily%3DArchitects%2BDaughter;fontSize=16;endArrow=none;endFill=0;" edge="1" parent="1" source="50oOgXxluQxWrbX13Ne8-50" target="50oOgXxluQxWrbX13Ne8-55">
          <mxGeometry relative="1" as="geometry" />
        </mxCell>
        <mxCell id="50oOgXxluQxWrbX13Ne8-79" style="edgeStyle=none;rounded=1;sketch=1;hachureGap=4;jiggle=2;orthogonalLoop=1;jettySize=auto;html=1;entryX=0.5;entryY=0;entryDx=0;entryDy=0;fontFamily=Architects Daughter;fontSource=https%3A%2F%2Ffonts.googleapis.com%2Fcss%3Ffamily%3DArchitects%2BDaughter;fontSize=16;endArrow=none;endFill=0;" edge="1" parent="1" source="50oOgXxluQxWrbX13Ne8-50" target="50oOgXxluQxWrbX13Ne8-73">
          <mxGeometry relative="1" as="geometry" />
        </mxCell>
        <mxCell id="50oOgXxluQxWrbX13Ne8-50" value="ORDER FORM" style="whiteSpace=wrap;html=1;align=center;rounded=1;sketch=1;hachureGap=4;jiggle=2;fontFamily=Architects Daughter;fontSource=https%3A%2F%2Ffonts.googleapis.com%2Fcss%3Ffamily%3DArchitects%2BDaughter;fontSize=20;" vertex="1" parent="1">
          <mxGeometry x="1310" y="1290" width="100" height="40" as="geometry" />
        </mxCell>
        <mxCell id="50oOgXxluQxWrbX13Ne8-57" style="edgeStyle=none;rounded=1;sketch=1;hachureGap=4;jiggle=2;orthogonalLoop=1;jettySize=auto;html=1;fontFamily=Architects Daughter;fontSource=https%3A%2F%2Ffonts.googleapis.com%2Fcss%3Ffamily%3DArchitects%2BDaughter;fontSize=16;endArrow=none;endFill=0;entryX=0;entryY=0.5;entryDx=0;entryDy=0;exitX=1;exitY=0.5;exitDx=0;exitDy=0;" edge="1" parent="1" source="50oOgXxluQxWrbX13Ne8-52" target="50oOgXxluQxWrbX13Ne8-50">
          <mxGeometry relative="1" as="geometry">
            <mxPoint x="1310" y="1310" as="targetPoint" />
          </mxGeometry>
        </mxCell>
        <mxCell id="50oOgXxluQxWrbX13Ne8-52" value="Des.PRO" style="ellipse;whiteSpace=wrap;html=1;align=center;rounded=1;sketch=1;hachureGap=4;jiggle=2;fontFamily=Architects Daughter;fontSource=https%3A%2F%2Ffonts.googleapis.com%2Fcss%3Ffamily%3DArchitects%2BDaughter;fontSize=20;" vertex="1" parent="1">
          <mxGeometry x="1060" y="1330" width="100" height="40" as="geometry" />
        </mxCell>
        <mxCell id="50oOgXxluQxWrbX13Ne8-56" style="edgeStyle=none;rounded=1;sketch=1;hachureGap=4;jiggle=2;orthogonalLoop=1;jettySize=auto;html=1;entryX=0;entryY=0.5;entryDx=0;entryDy=0;fontFamily=Architects Daughter;fontSource=https%3A%2F%2Ffonts.googleapis.com%2Fcss%3Ffamily%3DArchitects%2BDaughter;fontSize=16;endArrow=none;endFill=0;exitX=1;exitY=0.5;exitDx=0;exitDy=0;" edge="1" parent="1" source="50oOgXxluQxWrbX13Ne8-53" target="50oOgXxluQxWrbX13Ne8-50">
          <mxGeometry relative="1" as="geometry" />
        </mxCell>
        <mxCell id="50oOgXxluQxWrbX13Ne8-53" value="ID" style="ellipse;whiteSpace=wrap;html=1;align=center;fontStyle=4;rounded=1;sketch=1;hachureGap=4;jiggle=2;fontFamily=Architects Daughter;fontSource=https%3A%2F%2Ffonts.googleapis.com%2Fcss%3Ffamily%3DArchitects%2BDaughter;fontSize=20;" vertex="1" parent="1">
          <mxGeometry x="1060" y="1220" width="100" height="40" as="geometry" />
        </mxCell>
        <mxCell id="50oOgXxluQxWrbX13Ne8-54" value="QUANTITY" style="ellipse;whiteSpace=wrap;html=1;align=center;rounded=1;sketch=1;hachureGap=4;jiggle=2;fontFamily=Architects Daughter;fontSource=https%3A%2F%2Ffonts.googleapis.com%2Fcss%3Ffamily%3DArchitects%2BDaughter;fontSize=20;" vertex="1" parent="1">
          <mxGeometry x="1060" y="1275" width="100" height="40" as="geometry" />
        </mxCell>
        <mxCell id="50oOgXxluQxWrbX13Ne8-55" value="STATUS" style="ellipse;shape=doubleEllipse;margin=3;whiteSpace=wrap;html=1;align=center;rounded=1;sketch=1;hachureGap=4;jiggle=2;fontFamily=Architects Daughter;fontSource=https%3A%2F%2Ffonts.googleapis.com%2Fcss%3Ffamily%3DArchitects%2BDaughter;fontSize=20;" vertex="1" parent="1">
          <mxGeometry x="1060" y="1390" width="100" height="40" as="geometry" />
        </mxCell>
        <mxCell id="50oOgXxluQxWrbX13Ne8-75" style="edgeStyle=none;rounded=1;sketch=1;hachureGap=4;jiggle=2;orthogonalLoop=1;jettySize=auto;html=1;entryX=0.5;entryY=0;entryDx=0;entryDy=0;fontFamily=Architects Daughter;fontSource=https%3A%2F%2Ffonts.googleapis.com%2Fcss%3Ffamily%3DArchitects%2BDaughter;fontSize=16;endArrow=none;endFill=0;shape=link;" edge="1" parent="1" source="50oOgXxluQxWrbX13Ne8-60" target="50oOgXxluQxWrbX13Ne8-50">
          <mxGeometry relative="1" as="geometry" />
        </mxCell>
        <mxCell id="50oOgXxluQxWrbX13Ne8-60" value="ORDER" style="shape=rhombus;perimeter=rhombusPerimeter;whiteSpace=wrap;html=1;align=center;rounded=1;sketch=1;hachureGap=4;jiggle=2;fontFamily=Architects Daughter;fontSource=https%3A%2F%2Ffonts.googleapis.com%2Fcss%3Ffamily%3DArchitects%2BDaughter;fontSize=20;" vertex="1" parent="1">
          <mxGeometry x="1300" y="1150" width="120" height="60" as="geometry" />
        </mxCell>
        <mxCell id="50oOgXxluQxWrbX13Ne8-61" value="IN4.PRO" style="whiteSpace=wrap;html=1;align=center;rounded=1;sketch=1;hachureGap=4;jiggle=2;fontFamily=Architects Daughter;fontSource=https%3A%2F%2Ffonts.googleapis.com%2Fcss%3Ffamily%3DArchitects%2BDaughter;fontSize=20;" vertex="1" parent="1">
          <mxGeometry x="1310" y="1595" width="100" height="40" as="geometry" />
        </mxCell>
        <mxCell id="50oOgXxluQxWrbX13Ne8-68" style="edgeStyle=none;rounded=1;sketch=1;hachureGap=4;jiggle=2;orthogonalLoop=1;jettySize=auto;html=1;entryX=0;entryY=0.5;entryDx=0;entryDy=0;fontFamily=Architects Daughter;fontSource=https%3A%2F%2Ffonts.googleapis.com%2Fcss%3Ffamily%3DArchitects%2BDaughter;fontSize=16;endArrow=none;endFill=0;" edge="1" parent="1" source="50oOgXxluQxWrbX13Ne8-62" target="50oOgXxluQxWrbX13Ne8-61">
          <mxGeometry relative="1" as="geometry" />
        </mxCell>
        <mxCell id="50oOgXxluQxWrbX13Ne8-62" value="ID" style="ellipse;whiteSpace=wrap;html=1;align=center;fontStyle=4;rounded=1;sketch=1;hachureGap=4;jiggle=2;fontFamily=Architects Daughter;fontSource=https%3A%2F%2Ffonts.googleapis.com%2Fcss%3Ffamily%3DArchitects%2BDaughter;fontSize=20;" vertex="1" parent="1">
          <mxGeometry x="1060" y="1520" width="100" height="40" as="geometry" />
        </mxCell>
        <mxCell id="50oOgXxluQxWrbX13Ne8-69" style="edgeStyle=none;rounded=1;sketch=1;hachureGap=4;jiggle=2;orthogonalLoop=1;jettySize=auto;html=1;entryX=0;entryY=0.75;entryDx=0;entryDy=0;fontFamily=Architects Daughter;fontSource=https%3A%2F%2Ffonts.googleapis.com%2Fcss%3Ffamily%3DArchitects%2BDaughter;fontSize=16;endArrow=none;endFill=0;" edge="1" parent="1" source="50oOgXxluQxWrbX13Ne8-63" target="50oOgXxluQxWrbX13Ne8-61">
          <mxGeometry relative="1" as="geometry" />
        </mxCell>
        <mxCell id="50oOgXxluQxWrbX13Ne8-63" value="NAME" style="ellipse;whiteSpace=wrap;html=1;align=center;rounded=1;sketch=1;hachureGap=4;jiggle=2;fontFamily=Architects Daughter;fontSource=https%3A%2F%2Ffonts.googleapis.com%2Fcss%3Ffamily%3DArchitects%2BDaughter;fontSize=20;" vertex="1" parent="1">
          <mxGeometry x="1060" y="1680" width="100" height="40" as="geometry" />
        </mxCell>
        <mxCell id="50oOgXxluQxWrbX13Ne8-72" style="edgeStyle=none;rounded=1;sketch=1;hachureGap=4;jiggle=2;orthogonalLoop=1;jettySize=auto;html=1;entryX=1;entryY=0.75;entryDx=0;entryDy=0;fontFamily=Architects Daughter;fontSource=https%3A%2F%2Ffonts.googleapis.com%2Fcss%3Ffamily%3DArchitects%2BDaughter;fontSize=16;endArrow=none;endFill=0;" edge="1" parent="1" source="50oOgXxluQxWrbX13Ne8-65" target="50oOgXxluQxWrbX13Ne8-61">
          <mxGeometry relative="1" as="geometry" />
        </mxCell>
        <mxCell id="50oOgXxluQxWrbX13Ne8-65" value="STATUS" style="ellipse;shape=doubleEllipse;margin=3;whiteSpace=wrap;html=1;align=center;rounded=1;sketch=1;hachureGap=4;jiggle=2;fontFamily=Architects Daughter;fontSource=https%3A%2F%2Ffonts.googleapis.com%2Fcss%3Ffamily%3DArchitects%2BDaughter;fontSize=20;" vertex="1" parent="1">
          <mxGeometry x="1570" y="1680" width="100" height="40" as="geometry" />
        </mxCell>
        <mxCell id="50oOgXxluQxWrbX13Ne8-70" style="edgeStyle=none;rounded=1;sketch=1;hachureGap=4;jiggle=2;orthogonalLoop=1;jettySize=auto;html=1;entryX=1;entryY=0.25;entryDx=0;entryDy=0;fontFamily=Architects Daughter;fontSource=https%3A%2F%2Ffonts.googleapis.com%2Fcss%3Ffamily%3DArchitects%2BDaughter;fontSize=16;endArrow=none;endFill=0;" edge="1" parent="1" source="50oOgXxluQxWrbX13Ne8-66" target="50oOgXxluQxWrbX13Ne8-61">
          <mxGeometry relative="1" as="geometry" />
        </mxCell>
        <mxCell id="50oOgXxluQxWrbX13Ne8-66" value="SELL.Pri" style="ellipse;whiteSpace=wrap;html=1;align=center;rounded=1;sketch=1;hachureGap=4;jiggle=2;fontFamily=Architects Daughter;fontSource=https%3A%2F%2Ffonts.googleapis.com%2Fcss%3Ffamily%3DArchitects%2BDaughter;fontSize=20;" vertex="1" parent="1">
          <mxGeometry x="1570" y="1525" width="100" height="40" as="geometry" />
        </mxCell>
        <mxCell id="50oOgXxluQxWrbX13Ne8-71" style="edgeStyle=none;rounded=1;sketch=1;hachureGap=4;jiggle=2;orthogonalLoop=1;jettySize=auto;html=1;entryX=1;entryY=0.5;entryDx=0;entryDy=0;fontFamily=Architects Daughter;fontSource=https%3A%2F%2Ffonts.googleapis.com%2Fcss%3Ffamily%3DArchitects%2BDaughter;fontSize=16;endArrow=none;endFill=0;" edge="1" parent="1" source="50oOgXxluQxWrbX13Ne8-67" target="50oOgXxluQxWrbX13Ne8-61">
          <mxGeometry relative="1" as="geometry" />
        </mxCell>
        <mxCell id="50oOgXxluQxWrbX13Ne8-67" value="BUY.Pri" style="ellipse;whiteSpace=wrap;html=1;align=center;rounded=1;sketch=1;hachureGap=4;jiggle=2;fontFamily=Architects Daughter;fontSource=https%3A%2F%2Ffonts.googleapis.com%2Fcss%3Ffamily%3DArchitects%2BDaughter;fontSize=20;" vertex="1" parent="1">
          <mxGeometry x="1570" y="1610" width="100" height="40" as="geometry" />
        </mxCell>
        <mxCell id="50oOgXxluQxWrbX13Ne8-78" style="edgeStyle=none;rounded=1;sketch=1;hachureGap=4;jiggle=2;orthogonalLoop=1;jettySize=auto;html=1;exitX=0.5;exitY=1;exitDx=0;exitDy=0;entryX=0.5;entryY=0;entryDx=0;entryDy=0;fontFamily=Architects Daughter;fontSource=https%3A%2F%2Ffonts.googleapis.com%2Fcss%3Ffamily%3DArchitects%2BDaughter;fontSize=16;endArrow=none;endFill=0;" edge="1" parent="1" source="50oOgXxluQxWrbX13Ne8-73" target="50oOgXxluQxWrbX13Ne8-61">
          <mxGeometry relative="1" as="geometry" />
        </mxCell>
        <mxCell id="50oOgXxluQxWrbX13Ne8-73" value="HAVE" style="shape=rhombus;perimeter=rhombusPerimeter;whiteSpace=wrap;html=1;align=center;rounded=1;sketch=1;hachureGap=4;jiggle=2;fontFamily=Architects Daughter;fontSource=https%3A%2F%2Ffonts.googleapis.com%2Fcss%3Ffamily%3DArchitects%2BDaughter;fontSize=20;" vertex="1" parent="1">
          <mxGeometry x="1300" y="1450" width="120" height="60" as="geometry" />
        </mxCell>
        <mxCell id="50oOgXxluQxWrbX13Ne8-76" value="N" style="text;html=1;strokeColor=none;fillColor=none;align=center;verticalAlign=middle;whiteSpace=wrap;rounded=0;sketch=1;hachureGap=4;jiggle=2;fontFamily=Architects Daughter;fontSource=https%3A%2F%2Ffonts.googleapis.com%2Fcss%3Ffamily%3DArchitects%2BDaughter;fontSize=20;" vertex="1" parent="1">
          <mxGeometry x="1360" y="1220" width="60" height="30" as="geometry" />
        </mxCell>
        <mxCell id="50oOgXxluQxWrbX13Ne8-77" value="N" style="text;html=1;strokeColor=none;fillColor=none;align=center;verticalAlign=middle;whiteSpace=wrap;rounded=0;sketch=1;hachureGap=4;jiggle=2;fontFamily=Architects Daughter;fontSource=https%3A%2F%2Ffonts.googleapis.com%2Fcss%3Ffamily%3DArchitects%2BDaughter;fontSize=20;" vertex="1" parent="1">
          <mxGeometry x="1360" y="1100" width="60" height="30" as="geometry" />
        </mxCell>
        <mxCell id="50oOgXxluQxWrbX13Ne8-81" value="N" style="text;html=1;strokeColor=none;fillColor=none;align=center;verticalAlign=middle;whiteSpace=wrap;rounded=0;sketch=1;hachureGap=4;jiggle=2;fontFamily=Architects Daughter;fontSource=https%3A%2F%2Ffonts.googleapis.com%2Fcss%3Ffamily%3DArchitects%2BDaughter;fontSize=20;" vertex="1" parent="1">
          <mxGeometry x="1360" y="1410" width="60" height="30" as="geometry" />
        </mxCell>
        <mxCell id="50oOgXxluQxWrbX13Ne8-82" value="N" style="text;html=1;strokeColor=none;fillColor=none;align=center;verticalAlign=middle;whiteSpace=wrap;rounded=0;sketch=1;hachureGap=4;jiggle=2;fontFamily=Architects Daughter;fontSource=https%3A%2F%2Ffonts.googleapis.com%2Fcss%3Ffamily%3DArchitects%2BDaughter;fontSize=20;" vertex="1" parent="1">
          <mxGeometry x="1370" y="1525" width="60" height="30" as="geometry" />
        </mxCell>
        <mxCell id="50oOgXxluQxWrbX13Ne8-83" value="BY" style="shape=rhombus;perimeter=rhombusPerimeter;whiteSpace=wrap;html=1;align=center;rounded=1;sketch=1;hachureGap=4;jiggle=2;fontFamily=Architects Daughter;fontSource=https%3A%2F%2Ffonts.googleapis.com%2Fcss%3Ffamily%3DArchitects%2BDaughter;fontSize=20;" vertex="1" parent="1">
          <mxGeometry x="1680" y="1190" width="120" height="60" as="geometry" />
        </mxCell>
        <mxCell id="50oOgXxluQxWrbX13Ne8-98" style="edgeStyle=none;rounded=1;sketch=1;hachureGap=4;jiggle=2;orthogonalLoop=1;jettySize=auto;html=1;entryX=0;entryY=0.5;entryDx=0;entryDy=0;fontFamily=Architects Daughter;fontSource=https%3A%2F%2Ffonts.googleapis.com%2Fcss%3Ffamily%3DArchitects%2BDaughter;fontSize=16;endArrow=none;endFill=0;" edge="1" parent="1" source="50oOgXxluQxWrbX13Ne8-84" target="50oOgXxluQxWrbX13Ne8-86">
          <mxGeometry relative="1" as="geometry" />
        </mxCell>
        <mxCell id="50oOgXxluQxWrbX13Ne8-99" style="edgeStyle=none;rounded=1;sketch=1;hachureGap=4;jiggle=2;orthogonalLoop=1;jettySize=auto;html=1;entryX=0;entryY=0.5;entryDx=0;entryDy=0;fontFamily=Architects Daughter;fontSource=https%3A%2F%2Ffonts.googleapis.com%2Fcss%3Ffamily%3DArchitects%2BDaughter;fontSize=16;endArrow=none;endFill=0;" edge="1" parent="1" source="50oOgXxluQxWrbX13Ne8-84" target="50oOgXxluQxWrbX13Ne8-87">
          <mxGeometry relative="1" as="geometry" />
        </mxCell>
        <mxCell id="50oOgXxluQxWrbX13Ne8-100" style="edgeStyle=none;rounded=1;sketch=1;hachureGap=4;jiggle=2;orthogonalLoop=1;jettySize=auto;html=1;entryX=0;entryY=0.5;entryDx=0;entryDy=0;fontFamily=Architects Daughter;fontSource=https%3A%2F%2Ffonts.googleapis.com%2Fcss%3Ffamily%3DArchitects%2BDaughter;fontSize=16;endArrow=none;endFill=0;" edge="1" parent="1" source="50oOgXxluQxWrbX13Ne8-84" target="50oOgXxluQxWrbX13Ne8-88">
          <mxGeometry relative="1" as="geometry" />
        </mxCell>
        <mxCell id="50oOgXxluQxWrbX13Ne8-101" style="edgeStyle=none;rounded=1;sketch=1;hachureGap=4;jiggle=2;orthogonalLoop=1;jettySize=auto;html=1;entryX=0;entryY=0.5;entryDx=0;entryDy=0;fontFamily=Architects Daughter;fontSource=https%3A%2F%2Ffonts.googleapis.com%2Fcss%3Ffamily%3DArchitects%2BDaughter;fontSize=16;endArrow=none;endFill=0;" edge="1" parent="1" source="50oOgXxluQxWrbX13Ne8-84" target="50oOgXxluQxWrbX13Ne8-89">
          <mxGeometry relative="1" as="geometry" />
        </mxCell>
        <mxCell id="50oOgXxluQxWrbX13Ne8-102" style="edgeStyle=none;rounded=1;sketch=1;hachureGap=4;jiggle=2;orthogonalLoop=1;jettySize=auto;html=1;entryX=0;entryY=0.5;entryDx=0;entryDy=0;fontFamily=Architects Daughter;fontSource=https%3A%2F%2Ffonts.googleapis.com%2Fcss%3Ffamily%3DArchitects%2BDaughter;fontSize=16;endArrow=none;endFill=0;" edge="1" parent="1" source="50oOgXxluQxWrbX13Ne8-84" target="50oOgXxluQxWrbX13Ne8-90">
          <mxGeometry relative="1" as="geometry" />
        </mxCell>
        <mxCell id="50oOgXxluQxWrbX13Ne8-103" style="edgeStyle=none;rounded=1;sketch=1;hachureGap=4;jiggle=2;orthogonalLoop=1;jettySize=auto;html=1;fontFamily=Architects Daughter;fontSource=https%3A%2F%2Ffonts.googleapis.com%2Fcss%3Ffamily%3DArchitects%2BDaughter;fontSize=16;endArrow=none;endFill=0;entryX=0;entryY=0.5;entryDx=0;entryDy=0;" edge="1" parent="1" source="50oOgXxluQxWrbX13Ne8-84" target="50oOgXxluQxWrbX13Ne8-91">
          <mxGeometry relative="1" as="geometry" />
        </mxCell>
        <mxCell id="50oOgXxluQxWrbX13Ne8-104" style="edgeStyle=none;rounded=1;sketch=1;hachureGap=4;jiggle=2;orthogonalLoop=1;jettySize=auto;html=1;entryX=0;entryY=0.5;entryDx=0;entryDy=0;fontFamily=Architects Daughter;fontSource=https%3A%2F%2Ffonts.googleapis.com%2Fcss%3Ffamily%3DArchitects%2BDaughter;fontSize=16;endArrow=none;endFill=0;" edge="1" parent="1" source="50oOgXxluQxWrbX13Ne8-84" target="50oOgXxluQxWrbX13Ne8-92">
          <mxGeometry relative="1" as="geometry" />
        </mxCell>
        <mxCell id="50oOgXxluQxWrbX13Ne8-105" style="edgeStyle=none;rounded=1;sketch=1;hachureGap=4;jiggle=2;orthogonalLoop=1;jettySize=auto;html=1;entryX=0;entryY=0.5;entryDx=0;entryDy=0;fontFamily=Architects Daughter;fontSource=https%3A%2F%2Ffonts.googleapis.com%2Fcss%3Ffamily%3DArchitects%2BDaughter;fontSize=16;endArrow=none;endFill=0;" edge="1" parent="1" source="50oOgXxluQxWrbX13Ne8-84" target="50oOgXxluQxWrbX13Ne8-93">
          <mxGeometry relative="1" as="geometry" />
        </mxCell>
        <mxCell id="50oOgXxluQxWrbX13Ne8-106" style="edgeStyle=none;rounded=1;sketch=1;hachureGap=4;jiggle=2;orthogonalLoop=1;jettySize=auto;html=1;entryX=0;entryY=0.5;entryDx=0;entryDy=0;fontFamily=Architects Daughter;fontSource=https%3A%2F%2Ffonts.googleapis.com%2Fcss%3Ffamily%3DArchitects%2BDaughter;fontSize=16;endArrow=none;endFill=0;" edge="1" parent="1" source="50oOgXxluQxWrbX13Ne8-84" target="50oOgXxluQxWrbX13Ne8-94">
          <mxGeometry relative="1" as="geometry" />
        </mxCell>
        <mxCell id="50oOgXxluQxWrbX13Ne8-107" style="edgeStyle=none;rounded=1;sketch=1;hachureGap=4;jiggle=2;orthogonalLoop=1;jettySize=auto;html=1;entryX=0;entryY=0.5;entryDx=0;entryDy=0;fontFamily=Architects Daughter;fontSource=https%3A%2F%2Ffonts.googleapis.com%2Fcss%3Ffamily%3DArchitects%2BDaughter;fontSize=16;endArrow=none;endFill=0;" edge="1" parent="1" source="50oOgXxluQxWrbX13Ne8-84" target="50oOgXxluQxWrbX13Ne8-97">
          <mxGeometry relative="1" as="geometry" />
        </mxCell>
        <mxCell id="50oOgXxluQxWrbX13Ne8-84" value="STAFF" style="whiteSpace=wrap;html=1;align=center;rounded=1;sketch=1;hachureGap=4;jiggle=2;fontFamily=Architects Daughter;fontSource=https%3A%2F%2Ffonts.googleapis.com%2Fcss%3Ffamily%3DArchitects%2BDaughter;fontSize=20;" vertex="1" parent="1">
          <mxGeometry x="2050" y="1100" width="100" height="40" as="geometry" />
        </mxCell>
        <mxCell id="50oOgXxluQxWrbX13Ne8-85" value="BILL" style="whiteSpace=wrap;html=1;align=center;rounded=1;sketch=1;hachureGap=4;jiggle=2;fontFamily=Architects Daughter;fontSource=https%3A%2F%2Ffonts.googleapis.com%2Fcss%3Ffamily%3DArchitects%2BDaughter;fontSize=20;" vertex="1" parent="1">
          <mxGeometry x="2050" y="1465" width="100" height="40" as="geometry" />
        </mxCell>
        <mxCell id="50oOgXxluQxWrbX13Ne8-86" value="ID" style="ellipse;whiteSpace=wrap;html=1;align=center;fontStyle=4;rounded=1;sketch=1;hachureGap=4;jiggle=2;fontFamily=Architects Daughter;fontSource=https%3A%2F%2Ffonts.googleapis.com%2Fcss%3Ffamily%3DArchitects%2BDaughter;fontSize=20;" vertex="1" parent="1">
          <mxGeometry x="2470" y="830" width="100" height="40" as="geometry" />
        </mxCell>
        <mxCell id="50oOgXxluQxWrbX13Ne8-87" value="NAME" style="ellipse;whiteSpace=wrap;html=1;align=center;rounded=1;sketch=1;hachureGap=4;jiggle=2;fontFamily=Architects Daughter;fontSource=https%3A%2F%2Ffonts.googleapis.com%2Fcss%3Ffamily%3DArchitects%2BDaughter;fontSize=20;" vertex="1" parent="1">
          <mxGeometry x="2470" y="900" width="100" height="40" as="geometry" />
        </mxCell>
        <mxCell id="50oOgXxluQxWrbX13Ne8-88" value="&lt;u&gt;ID CARD&lt;/u&gt;" style="ellipse;whiteSpace=wrap;html=1;align=center;rounded=1;sketch=1;hachureGap=4;jiggle=2;fontFamily=Architects Daughter;fontSource=https%3A%2F%2Ffonts.googleapis.com%2Fcss%3Ffamily%3DArchitects%2BDaughter;fontSize=20;" vertex="1" parent="1">
          <mxGeometry x="2470" y="970" width="100" height="40" as="geometry" />
        </mxCell>
        <mxCell id="50oOgXxluQxWrbX13Ne8-89" value="ADDRESS" style="ellipse;whiteSpace=wrap;html=1;align=center;rounded=1;sketch=1;hachureGap=4;jiggle=2;fontFamily=Architects Daughter;fontSource=https%3A%2F%2Ffonts.googleapis.com%2Fcss%3Ffamily%3DArchitects%2BDaughter;fontSize=20;" vertex="1" parent="1">
          <mxGeometry x="2470" y="1040" width="100" height="40" as="geometry" />
        </mxCell>
        <mxCell id="50oOgXxluQxWrbX13Ne8-90" value="PHONENUM" style="ellipse;shape=doubleEllipse;margin=3;whiteSpace=wrap;html=1;align=center;rounded=1;sketch=1;hachureGap=4;jiggle=2;fontFamily=Architects Daughter;fontSource=https%3A%2F%2Ffonts.googleapis.com%2Fcss%3Ffamily%3DArchitects%2BDaughter;fontSize=20;" vertex="1" parent="1">
          <mxGeometry x="2470" y="1110" width="100" height="40" as="geometry" />
        </mxCell>
        <mxCell id="50oOgXxluQxWrbX13Ne8-91" value="EMAIL" style="ellipse;shape=doubleEllipse;margin=3;whiteSpace=wrap;html=1;align=center;rounded=1;sketch=1;hachureGap=4;jiggle=2;fontFamily=Architects Daughter;fontSource=https%3A%2F%2Ffonts.googleapis.com%2Fcss%3Ffamily%3DArchitects%2BDaughter;fontSize=20;" vertex="1" parent="1">
          <mxGeometry x="2470" y="1180" width="100" height="40" as="geometry" />
        </mxCell>
        <mxCell id="50oOgXxluQxWrbX13Ne8-92" value="SEX" style="ellipse;shape=doubleEllipse;margin=3;whiteSpace=wrap;html=1;align=center;rounded=1;sketch=1;hachureGap=4;jiggle=2;fontFamily=Architects Daughter;fontSource=https%3A%2F%2Ffonts.googleapis.com%2Fcss%3Ffamily%3DArchitects%2BDaughter;fontSize=20;" vertex="1" parent="1">
          <mxGeometry x="2470" y="1250" width="100" height="40" as="geometry" />
        </mxCell>
        <mxCell id="50oOgXxluQxWrbX13Ne8-93" value="DoB" style="ellipse;whiteSpace=wrap;html=1;align=center;rounded=1;sketch=1;hachureGap=4;jiggle=2;fontFamily=Architects Daughter;fontSource=https%3A%2F%2Ffonts.googleapis.com%2Fcss%3Ffamily%3DArchitects%2BDaughter;fontSize=20;" vertex="1" parent="1">
          <mxGeometry x="2470" y="1320" width="100" height="40" as="geometry" />
        </mxCell>
        <mxCell id="50oOgXxluQxWrbX13Ne8-94" value="START" style="ellipse;whiteSpace=wrap;html=1;align=center;rounded=1;sketch=1;hachureGap=4;jiggle=2;fontFamily=Architects Daughter;fontSource=https%3A%2F%2Ffonts.googleapis.com%2Fcss%3Ffamily%3DArchitects%2BDaughter;fontSize=20;" vertex="1" parent="1">
          <mxGeometry x="2470" y="1390" width="100" height="40" as="geometry" />
        </mxCell>
        <mxCell id="50oOgXxluQxWrbX13Ne8-97" value="BANK.ACC" style="ellipse;whiteSpace=wrap;html=1;align=center;rounded=1;sketch=1;hachureGap=4;jiggle=2;fontFamily=Architects Daughter;fontSource=https%3A%2F%2Ffonts.googleapis.com%2Fcss%3Ffamily%3DArchitects%2BDaughter;fontSize=20;" vertex="1" parent="1">
          <mxGeometry x="2470" y="1460" width="100" height="40" as="geometry" />
        </mxCell>
        <mxCell id="50oOgXxluQxWrbX13Ne8-108" value="TO" style="shape=rhombus;perimeter=rhombusPerimeter;whiteSpace=wrap;html=1;align=center;rounded=1;sketch=1;hachureGap=4;jiggle=2;fontFamily=Architects Daughter;fontSource=https%3A%2F%2Ffonts.googleapis.com%2Fcss%3Ffamily%3DArchitects%2BDaughter;fontSize=20;" vertex="1" parent="1">
          <mxGeometry x="1680" y="1360" width="120" height="60" as="geometry" />
        </mxCell>
        <mxCell id="50oOgXxluQxWrbX13Ne8-109" value="TO" style="shape=rhombus;perimeter=rhombusPerimeter;whiteSpace=wrap;html=1;align=center;rounded=1;sketch=1;hachureGap=4;jiggle=2;fontFamily=Architects Daughter;fontSource=https%3A%2F%2Ffonts.googleapis.com%2Fcss%3Ffamily%3DArchitects%2BDaughter;fontSize=20;" vertex="1" parent="1">
          <mxGeometry x="2460" y="1610" width="120" height="60" as="geometry" />
        </mxCell>
        <mxCell id="50oOgXxluQxWrbX13Ne8-110" value="IN4.PRO" style="ellipse;whiteSpace=wrap;html=1;align=center;rounded=1;sketch=1;hachureGap=4;jiggle=2;fontFamily=Architects Daughter;fontSource=https%3A%2F%2Ffonts.googleapis.com%2Fcss%3Ffamily%3DArchitects%2BDaughter;fontSize=20;" vertex="1" parent="1">
          <mxGeometry x="1930" y="1330" width="100" height="40" as="geometry" />
        </mxCell>
        <mxCell id="50oOgXxluQxWrbX13Ne8-111" value="TIME" style="ellipse;whiteSpace=wrap;html=1;align=center;rounded=1;sketch=1;hachureGap=4;jiggle=2;fontFamily=Architects Daughter;fontSource=https%3A%2F%2Ffonts.googleapis.com%2Fcss%3Ffamily%3DArchitects%2BDaughter;fontSize=20;" vertex="1" parent="1">
          <mxGeometry x="1930" y="1640" width="100" height="40" as="geometry" />
        </mxCell>
        <mxCell id="50oOgXxluQxWrbX13Ne8-114" value="Attribute" style="ellipse;whiteSpace=wrap;html=1;align=center;rounded=1;sketch=1;hachureGap=4;jiggle=2;fontFamily=Architects Daughter;fontSource=https%3A%2F%2Ffonts.googleapis.com%2Fcss%3Ffamily%3DArchitects%2BDaughter;fontSize=20;" vertex="1" parent="1">
          <mxGeometry x="2060" y="1640" width="100" height="40" as="geometry" />
        </mxCell>
        <mxCell id="50oOgXxluQxWrbX13Ne8-115" value="PRICE" style="ellipse;whiteSpace=wrap;html=1;align=center;rounded=1;sketch=1;hachureGap=4;jiggle=2;fontFamily=Architects Daughter;fontSource=https%3A%2F%2Ffonts.googleapis.com%2Fcss%3Ffamily%3DArchitects%2BDaughter;fontSize=20;" vertex="1" parent="1">
          <mxGeometry x="2060" y="1330" width="100" height="40" as="geometry" />
        </mxCell>
        <mxCell id="50oOgXxluQxWrbX13Ne8-116" value="QUANTITY" style="ellipse;whiteSpace=wrap;html=1;align=center;rounded=1;sketch=1;hachureGap=4;jiggle=2;fontFamily=Architects Daughter;fontSource=https%3A%2F%2Ffonts.googleapis.com%2Fcss%3Ffamily%3DArchitects%2BDaughter;fontSize=20;" vertex="1" parent="1">
          <mxGeometry x="2180" y="1330" width="100" height="40" as="geometry" />
        </mxCell>
        <mxCell id="50oOgXxluQxWrbX13Ne8-118" value="Attribute" style="ellipse;whiteSpace=wrap;html=1;align=center;rounded=1;sketch=1;hachureGap=4;jiggle=2;fontFamily=Architects Daughter;fontSource=https%3A%2F%2Ffonts.googleapis.com%2Fcss%3Ffamily%3DArchitects%2BDaughter;fontSize=20;" vertex="1" parent="1">
          <mxGeometry x="2180" y="1640" width="100" height="40" as="geometry" />
        </mxCell>
      </root>
    </mxGraphModel>
  </diagram>
</mxfile>
